<svg id="Layer_1" data-name="Layer 1" xmlns="http://www.w3.org/2000/svg" viewBox="0 0 1065 285"><defs><style>.cls-1,.cls-2{fill:none;stroke:#000;stroke-miterlimit:10;}.cls-1{stroke-width:10px;}.cls-2{stroke-width:20px;}</style></defs><title>decouple</title><path d="M643,110.75l-7.15,21.15H627l-7.14-21.15h7.78l2.92,11.57,1,4.13,1-4.07,3-11.63Z"/><path d="M664.41,110.75v12q0,4.74-2.55,7.08t-7.67,2.34q-5.13,0-7.68-2.34T644,122.8v-12h7.49v12.63a3.59,3.59,0,0,0,.71,2.41,2.5,2.5,0,0,0,2,.82,2.55,2.55,0,0,0,2-.82,3.59,3.59,0,0,0,.7-2.41V110.75Z"/><path d="M667.19,131.9V110.75h17.56v5.48H674.66v2.63h8.14v5.06h-8.14v2.5h10.48v5.48Z"/><rect class="cls-1" x="594" y="81" width="380" height="79"/><path d="M92.13,100.6q7.66,0,11.57,4.25t3.91,12.07q0,7.77-3.91,12t-11.57,4.28h-16V100.6ZM90.5,125q3.21,0,4.28-2a13.5,13.5,0,0,0,1.06-6.16,13.48,13.48,0,0,0-1.06-6.16q-1.07-2-4.28-2H87.63V125Z"/><path d="M111,133.24V108.51h10.24l.25,6.18a11.06,11.06,0,0,1,2.59-4.87,6.24,6.24,0,0,1,4.68-1.8,5.56,5.56,0,0,1,1.73.2,3,3,0,0,1,.84.39l-.94,9.15a6,6,0,0,0-1.29-.35,10.47,10.47,0,0,0-1.83-.14,6.52,6.52,0,0,0-2.57.46,4,4,0,0,0-1.7,1.36,3.88,3.88,0,0,0-.62,2.28v11.87Z"/><path d="M140.89,133.73a10,10,0,0,1-4.35-.86,5.81,5.81,0,0,1-2.72-2.75,10.89,10.89,0,0,1-.94-4.89V108.51h11.37v14.1a3.59,3.59,0,0,0,.47,2.07,1.65,1.65,0,0,0,1.41.65,2,2,0,0,0,1-.23,1.74,1.74,0,0,0,.69-.66,3.78,3.78,0,0,0,.42-1.17,8.07,8.07,0,0,0,.15-1.65V108.51h11.37v24.73H149.49l-.24-5.24a8.84,8.84,0,0,1-3.19,4.3A9,9,0,0,1,140.89,133.73Z"/><path d="M163.59,143.62V108.51h10.33l.55,10.88-1.29-1.28a13.48,13.48,0,0,1,1.24-5.2,8.83,8.83,0,0,1,3-3.58A8,8,0,0,1,182,108a8.59,8.59,0,0,1,5.17,1.51,9.17,9.17,0,0,1,3.19,4.32,19.06,19.06,0,0,1,1.09,6.88,19.81,19.81,0,0,1-1.11,7,9.58,9.58,0,0,1-3.24,4.45,8.6,8.6,0,0,1-5.15,1.53,6.73,6.73,0,0,1-5.53-2.35,11.55,11.55,0,0,1-2.43-5.91l1-1.48v19.63Zm13.79-17.9a2.19,2.19,0,0,0,1.88-1c.47-.65.7-1.94.7-3.88s-.23-3.25-.7-3.91a2.17,2.17,0,0,0-1.88-1,1.77,1.77,0,0,0-1.28.52,3.41,3.41,0,0,0-.84,1.58,10.62,10.62,0,0,0-.3,2.8,11.84,11.84,0,0,0,.25,2.66,3.32,3.32,0,0,0,.79,1.64A1.87,1.87,0,0,0,177.38,125.72Z"/><path d="M207.6,117.81a2.74,2.74,0,0,0-.52-1.78,1.94,1.94,0,0,0-1.61-.64,2.54,2.54,0,0,0-1.73.59,3.38,3.38,0,0,0-.79,2.37L193.36,117a8.71,8.71,0,0,1,3.56-6.53c2.14-1.61,5.26-2.42,9.34-2.42a18.11,18.11,0,0,1,7.1,1.19,8.79,8.79,0,0,1,4.15,3.31,8.94,8.94,0,0,1,1.36,4.94v7.67c0,1.35.65,2,1.93,2a1.85,1.85,0,0,0,.84-.15l-.49,5.83a9.9,9.9,0,0,1-4.4.89,11.73,11.73,0,0,1-4.13-.67,6,6,0,0,1-2.82-2,5.66,5.66,0,0,1-1-3.49v-.49h1.08a5.58,5.58,0,0,1-1.21,3.38,8,8,0,0,1-3.09,2.4,10.26,10.26,0,0,1-4.4.89,11,11,0,0,1-4.43-.79,6,6,0,0,1-2.74-2.27,6.4,6.4,0,0,1-.94-3.51,6,6,0,0,1,1.73-4.43,9.59,9.59,0,0,1,5-2.35l8.6-1.78,0,4-2.67.64a2.56,2.56,0,0,0-1.48.81,2.2,2.2,0,0,0-.45,1.41,1.75,1.75,0,0,0,.5,1.29,1.86,1.86,0,0,0,1.38.49,2.06,2.06,0,0,0,.77-.14,1.78,1.78,0,0,0,.64-.45,2.14,2.14,0,0,0,.42-.72,2.85,2.85,0,0,0,.15-1Z"/><path d="M234.65,98.62V123.4a4.17,4.17,0,0,0,.44,2.17,1.74,1.74,0,0,0,1.59.7,5.47,5.47,0,0,0,1-.08l.82-.17-.5,6.13a7.92,7.92,0,0,1-2.69,1.14,14.3,14.3,0,0,1-3.44.44q-4.61,0-6.58-2t-2-6.62V98.62Z"/><path d="M363.16,113.44v19.8h-7v-19.8Zm9.3,7.29v5.13H359.53v-5.13Zm3.12-7.29v19.8h-7v-19.8Z"/><path d="M397.06,113.44v5.13h-6.18v14.67h-7V118.57h-6.21v-5.13Z"/><path d="M424.6,113.44v19.8h-6.09v-6.87l.09-6.66h-.09l-3.84,13.53h-5.58l-3.78-13.53h-.12l.09,6.66v6.87h-6.12v-19.8h9.78l2.28,8.79.87,3.69h.06l.87-3.69,2.28-8.79Z"/><path d="M434.59,128.11h9v5.13h-16v-19.8h7Z"/><path d="M364.51,250.54a9.35,9.35,0,0,1-4.59-1.13,7.87,7.87,0,0,1-3.21-3.39,12.15,12.15,0,0,1-1.17-5.62,11.71,11.71,0,0,1,1.22-5.54,8.23,8.23,0,0,1,3.52-3.51,11.71,11.71,0,0,1,5.52-1.21,11.58,11.58,0,0,1,5.87,1.29,8.17,8.17,0,0,1,3.37,4.14l-6.51,2.34a3,3,0,0,0-.91-2,2.76,2.76,0,0,0-1.76-.55,2.94,2.94,0,0,0-1.84.54,3,3,0,0,0-1,1.63,10.26,10.26,0,0,0-.32,2.78,9.15,9.15,0,0,0,.41,3,3,3,0,0,0,1.23,1.63,4,4,0,0,0,2.08.5,4.69,4.69,0,0,0,1.1-.12,2.64,2.64,0,0,0,.87-.38,1.67,1.67,0,0,0,.57-.64,2.06,2.06,0,0,0,.19-.93v0H365.8v-4.29H375v11.16h-4.62l-.57-5.31,1.08,1.17a5.43,5.43,0,0,1-2.11,3.28A7.13,7.13,0,0,1,364.51,250.54Z"/><path d="M377.5,250.24v-15h6.21l.15,3.75a6.71,6.71,0,0,1,1.58-3,3.76,3.76,0,0,1,2.83-1.09,3.51,3.51,0,0,1,1.05.12,1.74,1.74,0,0,1,.51.24l-.57,5.55a3.51,3.51,0,0,0-.78-.21,6.4,6.4,0,0,0-1.11-.09,3.92,3.92,0,0,0-1.56.28A2.24,2.24,0,0,0,384.4,243v7.2Z"/><path d="M399,240.88a1.67,1.67,0,0,0-.31-1.08,1.19,1.19,0,0,0-1-.39,1.56,1.56,0,0,0-1.05.36,2,2,0,0,0-.48,1.44l-5.82-.84a5.3,5.3,0,0,1,2.16-4,9.31,9.31,0,0,1,5.67-1.47,11.11,11.11,0,0,1,4.31.72,5.37,5.37,0,0,1,2.52,2,5.44,5.44,0,0,1,.82,3v4.65q0,1.23,1.17,1.23a1.16,1.16,0,0,0,.51-.09l-.3,3.54a6.05,6.05,0,0,1-2.67.54,7.16,7.16,0,0,1-2.5-.41,3.64,3.64,0,0,1-1.71-1.23,3.43,3.43,0,0,1-.62-2.11v-.3h.66a3.42,3.42,0,0,1-.73,2,4.94,4.94,0,0,1-1.88,1.46,6.3,6.3,0,0,1-2.67.54,6.66,6.66,0,0,1-2.68-.48,3.64,3.64,0,0,1-1.67-1.38,3.9,3.9,0,0,1-.57-2.13,3.62,3.62,0,0,1,1.05-2.69,5.8,5.8,0,0,1,3-1.42l5.22-1.08,0,2.43-1.62.39a1.55,1.55,0,0,0-.9.49,1.36,1.36,0,0,0-.27.86,1.06,1.06,0,0,0,.3.78,1.14,1.14,0,0,0,.84.3,1.27,1.27,0,0,0,.47-.09,1.05,1.05,0,0,0,.39-.27,1.26,1.26,0,0,0,.25-.44,1.72,1.72,0,0,0,.09-.58Z"/><path d="M408.46,256.54v-21.3h6.27l.33,6.6-.78-.78a8.2,8.2,0,0,1,.75-3.15,5.38,5.38,0,0,1,1.83-2.18,4.79,4.79,0,0,1,2.76-.79,5.25,5.25,0,0,1,3.14.91,5.62,5.62,0,0,1,1.93,2.63,11.62,11.62,0,0,1,.66,4.17,12,12,0,0,1-.67,4.26,5.74,5.74,0,0,1-2,2.7,5.19,5.19,0,0,1-3.12.93,4.1,4.1,0,0,1-3.36-1.43,7,7,0,0,1-1.47-3.58l.6-.9v11.91Zm8.37-10.86a1.34,1.34,0,0,0,1.14-.59,4.43,4.43,0,0,0,.42-2.35,4.54,4.54,0,0,0-.42-2.37,1.32,1.32,0,0,0-1.14-.6,1.09,1.09,0,0,0-.78.31,2.07,2.07,0,0,0-.51,1,6.54,6.54,0,0,0-.18,1.7,7.44,7.44,0,0,0,.15,1.62,2,2,0,0,0,.48,1A1.14,1.14,0,0,0,416.83,245.68Z"/><path d="M427.27,250.24v-21h6.9v9.06a5.26,5.26,0,0,1,1.79-2.49,4.74,4.74,0,0,1,2.89-.87,5.17,5.17,0,0,1,2.55.58,3.87,3.87,0,0,1,1.61,1.71,6.19,6.19,0,0,1,.55,2.75v10.26h-6.9v-8.46a2.71,2.71,0,0,0-.25-1.4.9.9,0,0,0-.8-.37,1.28,1.28,0,0,0-.81.25,1.45,1.45,0,0,0-.48.78,5,5,0,0,0-.15,1.34v7.86Z"/><path d="M455.65,230.14a11.33,11.33,0,0,1,5.4,1.2,8.16,8.16,0,0,1,3.45,3.48,13.3,13.3,0,0,1,0,11,8.16,8.16,0,0,1-3.45,3.48,12.71,12.71,0,0,1-10.78,0,8.23,8.23,0,0,1-3.48-3.48,13.1,13.1,0,0,1,0-11,8.23,8.23,0,0,1,3.48-3.48A11.33,11.33,0,0,1,455.65,230.14Zm0,5.25a2.54,2.54,0,0,0-1.66.52,3.15,3.15,0,0,0-1,1.61,12.5,12.5,0,0,0,0,5.62,3.14,3.14,0,0,0,1,1.62,2.54,2.54,0,0,0,1.66.53,2.57,2.57,0,0,0,1.67-.53,3.05,3.05,0,0,0,.94-1.62,13.31,13.31,0,0,0,0-5.62,3.06,3.06,0,0,0-.94-1.61A2.57,2.57,0,0,0,455.65,235.39Zm1.74,14a2.06,2.06,0,0,0,.41,1.41,2.43,2.43,0,0,0,1.23.78,6.25,6.25,0,0,0,1.81.24,7.58,7.58,0,0,0,2.25-.27,4.86,4.86,0,0,0,1.44-.72l.75,4.47a6.2,6.2,0,0,1-2,.88,9.65,9.65,0,0,1-2.46.32,9,9,0,0,1-4.39-1A5.23,5.23,0,0,1,454,253a4.94,4.94,0,0,1-.15-3.36Z"/><path d="M475.06,245.11h9v5.13h-16v-19.8h7Z"/><rect class="cls-2" x="9.55" y="50.05" width="293" height="142"/><path d="M555,23.19V3.39h11.34a9.8,9.8,0,0,1,5.58,1.33,4.53,4.53,0,0,1,1.83,4,4.39,4.39,0,0,1-1.08,3,5.35,5.35,0,0,1-3.39,1.56v0a5.9,5.9,0,0,1,3.78,1.53,4.43,4.43,0,0,1,1.2,3.18,4.55,4.55,0,0,1-1.75,3.91,9,9,0,0,1-5.39,1.31Zm6.69-12.12h3.12q1.8,0,1.8-1.44t-1.8-1.44H561.7Zm0,7.56h3.57a2.21,2.21,0,0,0,1.4-.38,1.31,1.31,0,0,0,.46-1.09,1.24,1.24,0,0,0-.46-1.05,2.27,2.27,0,0,0-1.4-.36H561.7Z"/><path d="M575.8,23.19v-15H582l.15,3.75a6.71,6.71,0,0,1,1.58-3,3.76,3.76,0,0,1,2.83-1.09,3.51,3.51,0,0,1,1,.12,1.74,1.74,0,0,1,.51.24l-.57,5.55a3.51,3.51,0,0,0-.78-.21,6.4,6.4,0,0,0-1.11-.09,3.75,3.75,0,0,0-1.56.29,2.28,2.28,0,0,0-1,.82A2.37,2.37,0,0,0,582.7,16v7.2Z"/><path d="M596.92,7.89a10.08,10.08,0,0,1,4.4.91,6.84,6.84,0,0,1,2.92,2.66,8,8,0,0,1,1,4.23,8,8,0,0,1-1,4.21,6.8,6.8,0,0,1-2.92,2.67,10.93,10.93,0,0,1-8.78,0,6.79,6.79,0,0,1-2.94-2.67,8,8,0,0,1-1.05-4.21,8,8,0,0,1,1.05-4.23,6.83,6.83,0,0,1,2.94-2.66A10.08,10.08,0,0,1,596.92,7.89Zm0,4.65a1.23,1.23,0,0,0-.78.25,1.66,1.66,0,0,0-.49,1,8.81,8.81,0,0,0-.17,1.95,8.54,8.54,0,0,0,.17,1.93,1.73,1.73,0,0,0,.49.95,1.29,1.29,0,0,0,1.58,0,1.8,1.8,0,0,0,.48-.95,8.65,8.65,0,0,0,.16-1.93,8.91,8.91,0,0,0-.16-1.95,1.72,1.72,0,0,0-.48-1A1.23,1.23,0,0,0,596.92,12.54Z"/><path d="M627,8.19h7.14l-4.08,15h-8.58l-1.74-7.38L618,23.19h-8.58l-4.08-15h7.14l1.71,10.29L616.3,8.19h6.78l2.16,10.29Z"/><path d="M641.89,23.49a14.72,14.72,0,0,1-4.21-.6,10.25,10.25,0,0,1-3.53-1.8l2.46-3.57a7.64,7.64,0,0,0,2.13,1.27,6.77,6.77,0,0,0,2.64.56,3.26,3.26,0,0,0,.92-.12c.27-.08.4-.22.4-.42a.38.38,0,0,0-.22-.36,3.83,3.83,0,0,0-1-.24L640.42,18a10.14,10.14,0,0,1-4.62-1.8,4,4,0,0,1-1.35-3.15,4.31,4.31,0,0,1,.8-2.42,5.78,5.78,0,0,1,2.53-2,11.35,11.35,0,0,1,4.59-.78,14,14,0,0,1,4.2.58,8.38,8.38,0,0,1,3,1.61l-2.37,3.42a6.8,6.8,0,0,0-2.14-1.07,8.12,8.12,0,0,0-2.39-.4,4.11,4.11,0,0,0-.78.06,1,1,0,0,0-.43.16.33.33,0,0,0-.14.26q0,.21.3.39a3.85,3.85,0,0,0,1.17.33l2.13.36a6.18,6.18,0,0,1,3.56,1.56A4,4,0,0,1,649.63,18a4.93,4.93,0,0,1-.79,2.71,5.47,5.47,0,0,1-2.49,2A11.16,11.16,0,0,1,641.89,23.49Z"/><path d="M659,23.49a10.66,10.66,0,0,1-4.62-.92,6.6,6.6,0,0,1-2.94-2.65,8.23,8.23,0,0,1-1-4.23,8.14,8.14,0,0,1,1-4.23,6.76,6.76,0,0,1,2.91-2.66,10,10,0,0,1,4.36-.91,9.57,9.57,0,0,1,4.34.91,6.36,6.36,0,0,1,2.71,2.57,7.69,7.69,0,0,1,.93,3.84c0,.32,0,.65,0,1a7.63,7.63,0,0,1-.11.81h-11.7V14.46h8.7l-3.27,1.29a8.12,8.12,0,0,0-.28-2.46,1.19,1.19,0,0,0-1.25-.84,1.68,1.68,0,0,0-1,.3,1.74,1.74,0,0,0-.59,1,8.87,8.87,0,0,0-.18,2,6.14,6.14,0,0,0,.24,2,1.49,1.49,0,0,0,.71.9,2.69,2.69,0,0,0,1.18.23,1.87,1.87,0,0,0,1.22-.35,1.67,1.67,0,0,0,.58-.94l5.55,1.5A4.39,4.39,0,0,1,665,21.55,7.31,7.31,0,0,1,662.25,23,11.14,11.14,0,0,1,659,23.49Z"/><path d="M668.38,23.19v-15h6.21l.15,3.75a6.71,6.71,0,0,1,1.58-3,3.74,3.74,0,0,1,2.83-1.09A3.51,3.51,0,0,1,680.2,8a1.74,1.74,0,0,1,.51.24l-.57,5.55a3.51,3.51,0,0,0-.78-.21,6.4,6.4,0,0,0-1.11-.09,3.75,3.75,0,0,0-1.56.29,2.28,2.28,0,0,0-1,.82,2.37,2.37,0,0,0-.38,1.38v7.2Z"/><rect class="cls-2" x="558" y="50" width="451" height="142"/><polyline class="cls-2" points="462 84.05 499 121.05 462 158.05"/><polyline class="cls-1" points="184 229.53 184 267 904 267 904 166.53"/><polygon points="169.04 233.9 184 208 198.96 233.9 169.04 233.9"/><polygon points="918.96 170.9 904 145 889.04 170.9 918.96 170.9"/></svg>