<svg id="Layer_1" data-name="Layer 1" xmlns="http://www.w3.org/2000/svg" xmlns:xlink="http://www.w3.org/1999/xlink" viewBox="0 0 417 274"><defs><style>.cls-1,.cls-10,.cls-3,.cls-5,.cls-8{fill:none;}.cls-2,.cls-4{fill:#fff;}.cls-3{stroke:#006984;}.cls-10,.cls-3,.cls-4,.cls-5,.cls-8{stroke-miterlimit:10;stroke-width:2px;}.cls-4,.cls-5{stroke:#000;}.cls-6{fill:#0054a2;}.cls-7{fill:#006984;}.cls-10,.cls-8{stroke:#ca0022;}.cls-8{stroke-dasharray:3 3;}.cls-9{fill:#ca0022;}.cls-10{stroke-dasharray:3;}.cls-11{clip-path:url(#clip-path);}.cls-12{clip-path:url(#clip-path-2);}.cls-13{clip-path:url(#clip-path-3);}.cls-14{clip-path:url(#clip-path-4);}</style><clipPath id="clip-path"><path id="SVGID" class="cls-1" d="M18.07,66.89v80h71v-80Zm17,67c-4.42,0-8-2.69-8-6s3.58-6,8-6,8,2.69,8,6S39.49,133.89,35.07,133.89Z"/></clipPath><clipPath id="clip-path-2"><path id="SVGID-2" data-name="SVGID" class="cls-1" d="M201.07,62.89v82h105v-82Zm51,52a8,8,0,1,1,8-8A8,8,0,0,1,252.07,114.89Z"/></clipPath><clipPath id="clip-path-3"><path id="SVGID-3" data-name="SVGID" class="cls-1" d="M205.07,25.89v119h186v-119Zm150,89a8,8,0,1,1,8-8A8,8,0,0,1,355.07,114.89Z"/></clipPath><clipPath id="clip-path-4"><path id="SVGID-4" data-name="SVGID" class="cls-1" d="M194.07,29.89v170h154v-170Zm93.5,107a9,9,0,1,1,8.5-9A8.76,8.76,0,0,1,287.57,136.89Z"/></clipPath></defs><title>graphql</title><path class="cls-2" d="M150.87,26.23a19.14,19.14,0,0,0-4,.43,19,19,0,0,0-33.91-8.75,10.25,10.25,0,0,0-13.15,9.83,11.24,11.24,0,0,0,.14,1.65,18.42,18.42,0,0,0,7,35.21v0h43.9a19.2,19.2,0,0,0,0-38.4Z"/><path class="cls-3" d="M150.87,26.23a19.14,19.14,0,0,0-4,.43,19,19,0,0,0-33.91-8.75,10.25,10.25,0,0,0-13.15,9.83,11.24,11.24,0,0,0,.14,1.65,18.42,18.42,0,0,0,7,35.21v0h43.9a19.2,19.2,0,0,0,0-38.4Z"/><rect class="cls-2" x="118.07" y="170.89" width="78" height="62"/><path d="M195.07,171.89v60h-76v-60h76m2-2h-80v64h80v-64Z"/><rect class="cls-2" x="118.07" y="170.89" width="78" height="8"/><path d="M195.07,171.89v6h-76v-6h76m2-2h-80v10h80v-10Z"/><line class="cls-4" x1="131.07" y1="174.89" x2="193.07" y2="174.89"/><rect x="121.07" y="173.89" width="2" height="2"/><rect x="124.07" y="173.89" width="2" height="2"/><rect class="cls-2" x="221.07" y="170.89" width="78" height="62"/><path d="M298.07,171.89v60h-76v-60h76m2-2h-80v64h80v-64Z"/><rect class="cls-2" x="221.07" y="170.89" width="78" height="8"/><path d="M298.07,171.89v6h-76v-6h76m2-2h-80v10h80v-10Z"/><line class="cls-4" x1="234.07" y1="174.89" x2="296.07" y2="174.89"/><rect x="224.07" y="173.89" width="2" height="2"/><rect x="227.07" y="173.89" width="2" height="2"/><rect class="cls-2" x="324.07" y="170.89" width="78" height="62"/><path d="M401.07,171.89v60h-76v-60h76m2-2h-80v64h80v-64Z"/><rect class="cls-2" x="324.07" y="170.89" width="78" height="8"/><path d="M401.07,171.89v6h-76v-6h76m2-2h-80v10h80v-10Z"/><line class="cls-4" x1="337.07" y1="174.89" x2="399.07" y2="174.89"/><rect x="327.07" y="173.89" width="2" height="2"/><rect x="330.07" y="173.89" width="2" height="2"/><rect class="cls-2" x="10.07" y="170.89" width="78" height="62"/><path d="M87.07,171.89v60h-76v-60h76m2-2h-80v64h80v-64Z"/><rect class="cls-2" x="10.07" y="170.89" width="78" height="8"/><path d="M87.07,171.89v6h-76v-6h76m2-2h-80v10h80v-10Z"/><line class="cls-4" x1="23.07" y1="174.89" x2="85.07" y2="174.89"/><rect x="13.07" y="173.89" width="2" height="2"/><rect x="16.07" y="173.89" width="2" height="2"/><rect class="cls-2" x="111.07" y="57.89" width="78" height="18"/><path d="M188.07,58.89v16h-76v-16h76m2-2h-80v20h80v-20Z"/><path d="M123.07,64.89v4h-4v-4h4m2-2h-8v8h8v-8Z"/><path d="M136.07,64.89v4h-4v-4h4m2-2h-8v8h8v-8Z"/><line class="cls-5" x1="164.07" y1="60.89" x2="164.07" y2="71.89"/><line class="cls-5" x1="146.07" y1="60.89" x2="146.07" y2="71.89"/><line class="cls-5" x1="155.07" y1="60.89" x2="155.07" y2="71.89"/><line class="cls-5" x1="182.07" y1="60.89" x2="182.07" y2="71.89"/><line class="cls-5" x1="173.07" y1="60.89" x2="173.07" y2="71.89"/><rect class="cls-2" x="111.07" y="33.89" width="78" height="18"/><path d="M188.07,34.89v16h-76v-16h76m2-2h-80v20h80v-20Z"/><path d="M123.07,40.89v4h-4v-4h4m2-2h-8v8h8v-8Z"/><path d="M136.07,40.89v4h-4v-4h4m2-2h-8v8h8v-8Z"/><line class="cls-5" x1="164.07" y1="36.89" x2="164.07" y2="47.89"/><line class="cls-5" x1="146.07" y1="36.89" x2="146.07" y2="47.89"/><line class="cls-5" x1="155.07" y1="36.89" x2="155.07" y2="47.89"/><line class="cls-5" x1="182.07" y1="36.89" x2="182.07" y2="47.89"/><line class="cls-5" x1="173.07" y1="36.89" x2="173.07" y2="47.89"/><path d="M15.11,156.54l-.85-4.68-.84,4.68H11.18l-1.36-6.37h1.92l.66,5,1-5h1.84l.88,5,.77-5H18.7l-1.32,6.37Z"/><path d="M24.1,156.54l-.85-4.68-.84,4.68H20.17l-1.36-6.37h1.92l.66,5,1-5h1.85l.88,5,.77-5h1.81l-1.32,6.37Z"/><path d="M33.09,156.54l-.85-4.68-.84,4.68H29.15l-1.35-6.37h1.92l.66,5,1-5h1.85l.88,5,.76-5h1.81l-1.31,6.37Z"/><path d="M39,155.65a1.09,1.09,0,1,1-1.08-1.07A1.08,1.08,0,0,1,39,155.65Z"/><path d="M42.39,156.75c-1.4,0-2.09-.81-2.09-2.31v-2.95h-.9v-1.32h.9v-1.38l1.9-.21v1.59h1.46l-.2,1.32H42.2v2.93c0,.61.2.83.6.83a1.23,1.23,0,0,0,.68-.22l.64,1.21A3.15,3.15,0,0,1,42.39,156.75Z"/><path d="M50.15,153.92H46.21c.13,1.13.67,1.45,1.45,1.45a2.55,2.55,0,0,0,1.52-.57l.78,1.06a3.94,3.94,0,0,1-2.48.89c-2.13,0-3.21-1.37-3.21-3.36s1-3.42,3-3.42,2.94,1.2,2.94,3.26A5.22,5.22,0,0,1,50.15,153.92Zm-1.82-1.23c0-.86-.28-1.46-1-1.46s-1,.41-1.09,1.55h2.12Z"/><path d="M55.86,150.75l-.69,1.08a2.76,2.76,0,0,0-1.51-.51c-.58,0-.83.2-.83.48s.17.48,1.31.82,2,.89,2,2c0,1.32-1.24,2.1-2.83,2.1a4,4,0,0,1-2.66-.95l.94-1.05a2.6,2.6,0,0,0,1.66.64c.59,0,.94-.22.94-.59s-.19-.57-1.34-.9-1.89-1-1.89-2,1-1.94,2.61-1.94A3.67,3.67,0,0,1,55.86,150.75Z"/><path d="M59.34,156.75c-1.4,0-2.08-.81-2.08-2.31v-2.95h-.9v-1.32h.9v-1.38l1.89-.21v1.59h1.47l-.21,1.32H59.15v2.93c0,.61.21.83.6.83a1.26,1.26,0,0,0,.69-.22l.63,1.21A3.13,3.13,0,0,1,59.34,156.75Z"/><path d="M63.48,155.65a1.09,1.09,0,1,1-1.07-1.07A1.08,1.08,0,0,1,63.48,155.65Z"/><path d="M69.41,150.75l-.83,1.14a1.76,1.76,0,0,0-1.2-.47c-.81,0-1.28.55-1.28,2s.5,1.85,1.26,1.85a1.8,1.8,0,0,0,1.19-.47l.86,1.21a3.31,3.31,0,0,1-2.15.76,3,3,0,0,1-3.15-3.34c0-2,1.21-3.44,3.12-3.44A3.17,3.17,0,0,1,69.41,150.75Z"/><path d="M75.71,151.89v4.65H73.82v-4.33c0-.67-.24-.85-.6-.85s-.77.3-1.11.82v4.36H70.22v-8.9l1.89-.19v3.41A2.32,2.32,0,0,1,74,150,1.69,1.69,0,0,1,75.71,151.89Z"/><line class="cls-4" x1="295.07" y1="191.82" x2="260.07" y2="191.82"/><line class="cls-4" x1="260.07" y1="196.89" x2="289.07" y2="196.89"/><line class="cls-4" x1="260.07" y1="202.89" x2="293.07" y2="202.89"/><line class="cls-4" x1="260.07" y1="208.89" x2="289.07" y2="208.89"/><line class="cls-4" x1="260.07" y1="214.89" x2="295.07" y2="214.89"/><line class="cls-4" x1="260.07" y1="220.89" x2="289.07" y2="220.89"/><rect class="cls-5" x="228.07" y="191.89" width="26" height="29"/><polyline class="cls-5" points="228.07 212.09 233.67 206.49 240.07 212.89 249.07 203.89 253.82 208.64"/><circle class="cls-5" cx="240.07" cy="199.89" r="4"/><rect class="cls-5" x="125.07" y="191.89" width="26" height="29"/><line class="cls-4" x1="363.07" y1="191.82" x2="389.07" y2="191.82"/><line class="cls-4" x1="363.07" y1="196.89" x2="398.07" y2="196.89"/><line class="cls-4" x1="363.07" y1="202.89" x2="391.07" y2="202.89"/><line class="cls-4" x1="363.07" y1="208.89" x2="396.07" y2="208.89"/><line class="cls-4" x1="363.07" y1="214.89" x2="383.07" y2="214.89"/><line class="cls-4" x1="363.07" y1="220.89" x2="389.07" y2="220.89"/><rect class="cls-5" x="331.07" y="191.89" width="26" height="29"/><path d="M72.78,107.58v3.56h-2v-8.31h2V106h2.49v-3.21h2v8.31h-2v-3.56Z"/><path d="M82.25,104.34v6.8h-2v-6.8H78.13v-1.51h6.36l-.19,1.51Z"/><path d="M91.36,111.14l-.14-3.25a32.13,32.13,0,0,1,0-3.39l-1.29,5.77H88.05l-1.36-5.77a30.12,30.12,0,0,1,0,3.42l-.14,3.22H84.66l.62-8.31h2.49L89,108.47l1.17-5.64h2.49l.62,8.31Z"/><path d="M99.76,109.58l-.2,1.56h-5v-8.31h2v6.75Z"/><path d="M108.56,106.43v1.46h-1.81v1.87h-1.57v-1.87h-1.82v-1.46h1.82v-1.87h1.57v1.87Z"/><path d="M112.39,113.17l-.53-1.39a1.72,1.72,0,0,0,1.24-2v-7h2v7C115.07,112,113.79,112.71,112.39,113.17Z"/><path d="M122,110.07l-.4,1.24a1.58,1.58,0,0,1-1.53-.92,2.17,2.17,0,0,1-1.92,1,1.93,1.93,0,0,1-2.08-2c0-1.39,1.06-2.14,3-2.14h.65v-.28c0-.75-.3-1-1.08-1a5.87,5.87,0,0,0-1.67.33l-.43-1.24a7.18,7.18,0,0,1,2.4-.47c1.84,0,2.63.78,2.63,2.25v2.47C121.6,109.79,121.74,110,122,110.07Zm-2.29-.69v-1.13h-.47c-.87,0-1.29.3-1.29.94a.71.71,0,0,0,.75.8A1.15,1.15,0,0,0,119.75,109.38Z"/><path d="M124.16,111.14l-2-6.37h2.06l1.13,4.93,1.18-4.93h1.93l-2,6.37Z"/><path d="M134.58,110.07l-.4,1.24a1.6,1.6,0,0,1-1.54-.92,2.15,2.15,0,0,1-1.91,1,1.93,1.93,0,0,1-2.08-2c0-1.39,1.06-2.14,3-2.14h.65v-.28c0-.75-.3-1-1.08-1a5.87,5.87,0,0,0-1.67.33l-.43-1.24a7.18,7.18,0,0,1,2.39-.47c1.85,0,2.64.78,2.64,2.25v2.47C134.14,109.79,134.28,110,134.58,110.07Zm-2.29-.69v-1.13h-.47c-.87,0-1.29.3-1.29.94a.71.71,0,0,0,.75.8A1.15,1.15,0,0,0,132.29,109.38Z"/><path d="M141.25,103.69l-.93,1.07a2.7,2.7,0,0,0-1.81-.69c-.68,0-1.11.28-1.11.81s.31.74,1.6,1.15c1.58.51,2.48,1.15,2.48,2.69s-1.23,2.63-3.3,2.63a4.43,4.43,0,0,1-3.16-1.19l1-1.1a3,3,0,0,0,2.09.82c.81,0,1.32-.38,1.32-1s-.32-.88-1.53-1.26c-1.86-.57-2.54-1.34-2.54-2.57,0-1.47,1.27-2.4,3-2.4A3.91,3.91,0,0,1,141.25,103.69Z"/><path d="M147.46,105.35l-.82,1.14a1.85,1.85,0,0,0-1.2-.47c-.82,0-1.29.55-1.29,2s.51,1.85,1.26,1.85a1.8,1.8,0,0,0,1.19-.47l.86,1.21a3.28,3.28,0,0,1-2.14.76,3,3,0,0,1-3.16-3.34c0-2,1.21-3.44,3.12-3.44A3.17,3.17,0,0,1,147.46,105.35Z"/><path d="M152.36,104.68l-.3,1.83a2.2,2.2,0,0,0-.58-.08c-.79,0-1.11.59-1.31,1.56v3.15h-1.9v-6.37h1.65l.16,1.24a1.8,1.8,0,0,1,1.64-1.42A2.15,2.15,0,0,1,152.36,104.68Z"/><path d="M155.15,102.49a1.13,1.13,0,1,1-1.13-1.07A1.07,1.07,0,0,1,155.15,102.49Zm-2.07,8.65v-6.37H155v6.37Z"/><path d="M162.44,107.94c0,2-1,3.41-2.53,3.41a2,2,0,0,1-1.55-.66v2.91l-1.89.2v-9h1.66l.1.71a2.3,2.3,0,0,1,1.8-.91C161.71,104.57,162.44,105.88,162.44,107.94Zm-2,0c0-1.58-.38-2-1-2a1.31,1.31,0,0,0-1.07.74v2.69a1.13,1.13,0,0,0,1,.56C160,110,160.47,109.39,160.47,108Z"/><path d="M165.9,111.35c-1.41,0-2.09-.81-2.09-2.31v-3h-.9v-1.32h.9v-1.38l1.9-.21v1.59h1.46l-.21,1.32h-1.25V109c0,.61.2.83.59.83a1.24,1.24,0,0,0,.69-.22l.63,1.21A3.12,3.12,0,0,1,165.9,111.35Z"/><path d="M115.48,26.36c0,2.25-1.4,2.78-2.59,2.78h-1.32V23.63h1.16C114.13,23.63,115.48,24.07,115.48,26.36Zm-3.15,2.18H113c.86,0,1.73-.37,1.73-2.18s-.91-2.12-1.79-2.12h-.56Z"/><path d="M118.93,24.88l-.13.72a1.44,1.44,0,0,0-.37-.05c-.53,0-.83.38-1,1.19v2.4h-.73V24.93h.63l.07.85a1.2,1.2,0,0,1,1.13-1A1.84,1.84,0,0,1,118.93,24.88Z"/><path d="M122.28,29.14l-.06-.65a1.41,1.41,0,0,1-1.31.75A1.13,1.13,0,0,1,119.73,28v-3h.74v2.94c0,.58.19.79.65.79a1.25,1.25,0,0,0,1-.73v-3h.74v4.21Z"/><path d="M127.92,27c0,1.28-.56,2.21-1.65,2.21a1.34,1.34,0,0,1-1.1-.48v2l-.74.09V24.93h.63l.06.57a1.52,1.52,0,0,1,1.25-.67C127.49,24.83,127.92,25.7,127.92,27Zm-.79,0c0-1.09-.32-1.61-.95-1.61a1.27,1.27,0,0,0-1,.65v2.06a1.09,1.09,0,0,0,.92.51C126.77,28.64,127.13,28.13,127.13,27Z"/><path d="M132.37,28.73l-.16.51a.86.86,0,0,1-.83-.63,1.42,1.42,0,0,1-1.25.63A1.23,1.23,0,0,1,128.78,28c0-.91.68-1.39,1.86-1.39h.65v-.32c0-.6-.3-.83-.88-.83a3.59,3.59,0,0,0-1.14.23l-.18-.54a4.15,4.15,0,0,1,1.45-.29c1,0,1.48.52,1.48,1.4v1.93C132,28.53,132.16,28.65,132.37,28.73Zm-1.08-.7v-1h-.56c-.77,0-1.16.29-1.16.87s.24.76.72.76A1.09,1.09,0,0,0,131.29,28Z"/><path d="M134.49,28.63a.78.78,0,0,0,.28-.05l.19.51a1.39,1.39,0,0,1-.63.15c-.53,0-.84-.32-.84-.93V23.23l.74-.08v5.14C134.23,28.52,134.3,28.63,134.49,28.63Z"/><path d="M231.08,109.35l-.42,1.79h-2l2.51-8.31h2.38l2.51,8.31h-2.09l-.43-1.79Zm1.21-5.09-.88,3.67h1.76Z"/><path d="M241.18,105.35l-.7,1.08a2.76,2.76,0,0,0-1.51-.51c-.57,0-.82.2-.82.48s.16.48,1.3.82,2,.89,2,2c0,1.32-1.25,2.1-2.83,2.1a4,4,0,0,1-2.66-.95l.93-1.05a2.65,2.65,0,0,0,1.67.64c.59,0,.93-.22.93-.59s-.19-.57-1.34-.9-1.88-1-1.88-2,1-1.94,2.6-1.94A3.72,3.72,0,0,1,241.18,105.35Z"/><path d="M247,105.35l-.7,1.08a2.76,2.76,0,0,0-1.51-.51c-.58,0-.83.2-.83.48s.17.48,1.31.82,2,.89,2,2c0,1.32-1.25,2.1-2.83,2.1a4,4,0,0,1-2.67-.95l.94-1.05a2.63,2.63,0,0,0,1.67.64c.58,0,.93-.22.93-.59s-.19-.57-1.34-.9-1.88-1-1.88-2,1-1.94,2.6-1.94A3.72,3.72,0,0,1,247,105.35Z"/><path d="M253.71,108.52h-4c.13,1.13.67,1.45,1.45,1.45a2.58,2.58,0,0,0,1.53-.57l.78,1.06a4,4,0,0,1-2.49.89c-2.12,0-3.2-1.37-3.2-3.36s1-3.42,3-3.42,2.94,1.2,2.94,3.26C253.74,108,253.73,108.32,253.71,108.52Zm-1.83-1.23c0-.86-.27-1.46-1-1.46s-1,.41-1.09,1.55h2.12Z"/><path d="M257.1,111.35c-1.4,0-2.08-.81-2.08-2.31v-3h-.9v-1.32h.9v-1.38l1.89-.21v1.59h1.47l-.21,1.32h-1.26V109c0,.61.21.83.6.83a1.26,1.26,0,0,0,.69-.22l.63,1.21A3.13,3.13,0,0,1,257.1,111.35Z"/><path d="M264.05,105.35l-.69,1.08a2.79,2.79,0,0,0-1.52-.51c-.57,0-.82.2-.82.48s.16.48,1.3.82,2,.89,2,2c0,1.32-1.25,2.1-2.83,2.1a4,4,0,0,1-2.66-.95l.93-1.05a2.65,2.65,0,0,0,1.67.64c.59,0,.94-.22.94-.59s-.2-.57-1.35-.9-1.88-1-1.88-2,1-1.94,2.6-1.94A3.7,3.7,0,0,1,264.05,105.35Z"/><circle class="cls-6" cx="119.07" cy="85.89" r="12"/><path d="M119.07,74.89a11,11,0,1,1-11,11,11,11,0,0,1,11-11m0-2a13,13,0,1,0,13,13,13,13,0,0,0-13-13Z"/><path class="cls-2" d="M118.14,88.08h3.54l-.21,1.46h-5.54V88.19c2.72-2.64,3.6-3.64,3.6-4.62a1,1,0,0,0-1.11-1.08,1.81,1.81,0,0,0-1.48.84l-1.18-.89A3.44,3.44,0,0,1,118.63,81c1.88,0,2.85,1.1,2.85,2.39S120.66,85.82,118.14,88.08Z"/><circle class="cls-6" cx="181.07" cy="173.89" r="12"/><path d="M181.07,162.89a11,11,0,1,1-11,11,11,11,0,0,1,11-11m0-2a13,13,0,1,0,13,13,13,13,0,0,0-13-13Z"/><path class="cls-2" d="M177.68,170.14a4,4,0,0,1,2.85-1.13c1.8,0,2.85,1,2.85,2.14a2,2,0,0,1-1.59,1.95v.05a1.94,1.94,0,0,1,1.85,2c0,1.41-1.22,2.55-3.23,2.55a3.8,3.8,0,0,1-2.94-1.25l1.08-1a2.22,2.22,0,0,0,1.73.79c.82,0,1.39-.43,1.39-1.21s-.51-1.23-1.4-1.23h-.76l.22-1.32h.54c.73,0,1.25-.36,1.25-1.08s-.49-1-1.2-1a2.37,2.37,0,0,0-1.66.72Z"/><circle class="cls-6" cx="262.07" cy="159.89" r="12"/><path d="M262.07,148.89a11,11,0,1,1-11,11,11,11,0,0,1,11-11m0-2a13,13,0,1,0,13,13,13,13,0,0,0-13-13Z"/><path class="cls-2" d="M264,161.8v1.74h-1.87V161.8H258.7v-1.27L261,155l1.63.6-2,4.75h1.44l.22-2H264v2h.83v1.44Z"/><circle class="cls-6" cx="365.07" cy="159.89" r="12"/><path d="M365.07,148.89a11,11,0,1,1-11,11,11,11,0,0,1,11-11m0-2a13,13,0,1,0,13,13,13,13,0,0,0-13-13Z"/><path class="cls-2" d="M366.46,156.72a1.79,1.79,0,0,0-1-.34c-.89,0-1.56.82-1.65,2.33a2.5,2.5,0,0,1,1.73-.75c1.3,0,2.33,1,2.33,2.76a2.89,2.89,0,0,1-3,3c-2.21,0-3.11-1.83-3.11-4,0-2.81,1.37-4.78,3.62-4.78a3.19,3.19,0,0,1,1.82.54Zm-2.69,3.19c0,1.65.28,2.47,1.12,2.47s1-.7,1-1.55c0-1.13-.33-1.55-.91-1.55A1.67,1.67,0,0,0,363.77,159.91Z"/><line class="cls-3" x1="119.07" y1="114.89" x2="119.07" y2="151.72"/><polygon class="cls-7" points="114.08 150.26 119.07 158.89 124.06 150.26 114.08 150.26"/><line class="cls-8" x1="181.07" y1="118.89" x2="181.07" y2="93.07"/><polygon class="cls-9" points="186.06 94.53 181.07 85.89 176.09 94.53 186.06 94.53"/><line class="cls-10" x1="181.07" y1="155.89" x2="181.07" y2="133.89"/><path d="M155.12,127.81v2.33h-.76v-5.51h1.45c1.37,0,2.09.53,2.09,1.56a1.44,1.44,0,0,1-1.19,1.48l1.49,2.47h-.91L156,127.81Zm2-1.62c0-.69-.39-1-1.29-1h-.68v2h.77C156.65,127.22,157.09,126.94,157.09,126.19Z"/><path d="M162.13,128.29h-2.69c.07,1,.53,1.35,1.13,1.35a1.76,1.76,0,0,0,1.1-.37l.32.44a2.3,2.3,0,0,1-1.47.53c-1.18,0-1.86-.82-1.86-2.16s.66-2.25,1.75-2.25,1.73.79,1.73,2.08C162.14,128.06,162.13,128.19,162.13,128.29Zm-.72-.59c0-.83-.32-1.28-1-1.28s-.92.39-1,1.32h2Z"/><path d="M166.58,131.85l-.73-.09v-2.18a1.42,1.42,0,0,1-1.2.66c-1,0-1.59-.87-1.59-2.18s.62-2.23,1.65-2.23a1.53,1.53,0,0,1,1.18.57l.06-.47h.63Zm-.73-2.82V127a1.21,1.21,0,0,0-1-.55c-.63,0-1,.52-1,1.62s.35,1.61,1,1.61A1.21,1.21,0,0,0,165.85,129Z"/><path d="M170.61,130.14l-.06-.65a1.41,1.41,0,0,1-1.31.75,1.13,1.13,0,0,1-1.18-1.29v-3h.74v2.94c0,.58.19.79.65.79a1.26,1.26,0,0,0,1.05-.72v-3h.74v4.21Z"/><path d="M175.92,128.29h-2.68c.07,1,.53,1.35,1.13,1.35a1.76,1.76,0,0,0,1.1-.37l.32.44a2.3,2.3,0,0,1-1.47.53c-1.18,0-1.86-.82-1.86-2.16s.66-2.25,1.75-2.25,1.73.79,1.73,2.08A3.79,3.79,0,0,1,175.92,128.29Zm-.71-.59c0-.83-.32-1.28-1-1.28s-.93.39-1,1.32h2Z"/><path d="M179.73,126.31l-.32.49a1.76,1.76,0,0,0-1.08-.38c-.48,0-.78.21-.78.55s.22.5.9.68c.89.22,1.4.57,1.4,1.31s-.8,1.28-1.66,1.28a2.34,2.34,0,0,1-1.59-.55l.41-.47a1.72,1.72,0,0,0,1.16.43c.56,0,.91-.25.91-.62s-.21-.6-1-.81-1.27-.64-1.27-1.24.65-1.15,1.52-1.15A2.26,2.26,0,0,1,179.73,126.31Z"/><path d="M182.08,130.24a1.06,1.06,0,0,1-1.14-1.2V126.5h-.73v-.57h.73v-1l.74-.09v1h1l-.08.57h-.92V129c0,.42.13.62.5.62a1.08,1.08,0,0,0,.56-.18l.28.5A1.61,1.61,0,0,1,182.08,130.24Z"/><path d="M189.09,129.73l-.17.51a.86.86,0,0,1-.82-.63,1.42,1.42,0,0,1-1.25.63A1.23,1.23,0,0,1,185.5,129c0-.91.68-1.39,1.86-1.39H188v-.32c0-.6-.3-.83-.88-.83a3.59,3.59,0,0,0-1.14.23l-.18-.54a4.15,4.15,0,0,1,1.45-.29c1,0,1.48.52,1.48,1.4v1.93C188.74,129.53,188.88,129.65,189.09,129.73ZM188,129v-1h-.56c-.77,0-1.16.29-1.16.87s.24.76.72.76A1.09,1.09,0,0,0,188,129Z"/><path d="M192.83,126.31l-.32.49a1.81,1.81,0,0,0-1.09-.38c-.48,0-.77.21-.77.55s.22.5.9.68c.89.22,1.4.57,1.4,1.31s-.81,1.28-1.66,1.28a2.32,2.32,0,0,1-1.59-.55l.4-.47a1.72,1.72,0,0,0,1.17.43c.55,0,.9-.25.9-.62s-.2-.6-1-.81-1.27-.64-1.27-1.24.65-1.15,1.52-1.15A2.26,2.26,0,0,1,192.83,126.31Z"/><path d="M196.57,126.31l-.32.49a1.81,1.81,0,0,0-1.09-.38c-.48,0-.78.21-.78.55s.23.5.91.68c.88.22,1.4.57,1.4,1.31s-.81,1.28-1.67,1.28a2.34,2.34,0,0,1-1.59-.55l.41-.47a1.72,1.72,0,0,0,1.17.43c.55,0,.9-.25.9-.62s-.21-.6-1-.81-1.27-.64-1.27-1.24.64-1.15,1.51-1.15A2.27,2.27,0,0,1,196.57,126.31Z"/><path d="M200.89,128.29h-2.68c.07,1,.52,1.35,1.13,1.35a1.76,1.76,0,0,0,1.1-.37l.32.44a2.3,2.3,0,0,1-1.47.53c-1.18,0-1.87-.82-1.87-2.16s.67-2.25,1.75-2.25,1.74.79,1.74,2.08A3.79,3.79,0,0,1,200.89,128.29Zm-.71-.59c0-.83-.33-1.28-1-1.28s-.93.39-1,1.32h2Z"/><path d="M203.31,130.24a1.06,1.06,0,0,1-1.14-1.2V126.5h-.73v-.57h.73v-1l.74-.09v1h1l-.08.57h-.92V129c0,.42.14.62.5.62a1.05,1.05,0,0,0,.56-.18l.28.5A1.61,1.61,0,0,1,203.31,130.24Z"/><path d="M207.59,126.31l-.32.49a1.81,1.81,0,0,0-1.09-.38c-.48,0-.77.21-.77.55s.22.5.9.68c.89.22,1.4.57,1.4,1.31s-.81,1.28-1.66,1.28a2.3,2.3,0,0,1-1.59-.55l.4-.47a1.72,1.72,0,0,0,1.17.43c.55,0,.9-.25.9-.62s-.2-.6-1-.81-1.27-.64-1.27-1.24.65-1.15,1.52-1.15A2.26,2.26,0,0,1,207.59,126.31Z"/><path d="M21.6,127.81v2.33h-.76v-5.51h1.45c1.38,0,2.09.53,2.09,1.56a1.43,1.43,0,0,1-1.19,1.48l1.49,2.47h-.9l-1.32-2.33Zm2-1.62c0-.69-.39-1-1.3-1H21.6v2h.77C23.14,127.22,23.58,126.94,23.58,126.19Z"/><path d="M28.61,128.29H25.92c.07,1,.53,1.35,1.14,1.35a1.73,1.73,0,0,0,1.09-.37l.32.44a2.26,2.26,0,0,1-1.47.53c-1.17,0-1.86-.83-1.86-2.16s.66-2.25,1.75-2.25,1.73.79,1.73,2.08C28.62,128.06,28.62,128.19,28.61,128.29Zm-.71-.59c0-.83-.33-1.28-1-1.28s-.93.39-1,1.32h2Z"/><path d="M33.07,131.85l-.74-.09v-2.18a1.41,1.41,0,0,1-1.2.66c-1,0-1.59-.87-1.59-2.18s.62-2.23,1.65-2.23a1.57,1.57,0,0,1,1.19.57l0-.47h.64ZM32.33,129V127a1.19,1.19,0,0,0-1-.55c-.63,0-1,.52-1,1.62s.35,1.61,1,1.61A1.21,1.21,0,0,0,32.33,129Z"/><path d="M37.09,130.14l-.06-.65a1.41,1.41,0,0,1-1.31.75A1.13,1.13,0,0,1,34.55,129v-3h.73v2.94c0,.58.19.79.65.79a1.27,1.27,0,0,0,1.06-.73v-3h.73v4.21Z"/><path d="M42.41,128.29H39.72c.07,1,.53,1.35,1.14,1.35a1.75,1.75,0,0,0,1.09-.37l.32.44a2.28,2.28,0,0,1-1.47.53c-1.17,0-1.86-.83-1.86-2.16s.66-2.25,1.75-2.25,1.73.79,1.73,2.08C42.42,128.06,42.42,128.19,42.41,128.29Zm-.71-.59c0-.83-.33-1.28-1-1.28s-.93.39-1,1.32h2Z"/><path d="M46.22,126.31l-.32.49a1.81,1.81,0,0,0-1.09-.38c-.48,0-.78.21-.78.55s.23.5.91.68c.89.22,1.4.57,1.4,1.31s-.81,1.28-1.67,1.28a2.34,2.34,0,0,1-1.59-.55l.41-.47a1.77,1.77,0,0,0,1.17.43c.55,0,.9-.25.9-.62s-.21-.6-1-.81-1.27-.64-1.27-1.24.64-1.15,1.52-1.15A2.26,2.26,0,0,1,46.22,126.31Z"/><path d="M48.56,130.24a1.06,1.06,0,0,1-1.13-1.2V126.5h-.74v-.57h.74v-1l.73-.09v1h1l-.08.57h-.92V129c0,.42.14.62.51.62a1.11,1.11,0,0,0,.56-.18l.27.5A1.59,1.59,0,0,1,48.56,130.24Z"/><circle class="cls-5" cx="342.07" cy="203.89" r="4"/><path class="cls-5" d="M342.07,210.89a6,6,0,0,0-6,6v4h12v-4A6,6,0,0,0,342.07,210.89Z"/><circle class="cls-6" cx="288.07" cy="196.89" r="12"/><path d="M288.07,185.89a11,11,0,1,1-11,11,11,11,0,0,1,11-11m0-2a13,13,0,1,0,13,13,13,13,0,0,0-13-13Z"/><path class="cls-2" d="M287.44,200.75a3.47,3.47,0,0,1-2.77-1.25l1.1-1a1.89,1.89,0,0,0,1.51.79,1.37,1.37,0,0,0,1.45-1.44c0-1-.5-1.41-1.17-1.41a2.07,2.07,0,0,0-1,.27h-1.3v-4.47h5.09l-.22,1.37h-3v1.77a3,3,0,0,1,1.22-.26,2.44,2.44,0,0,1,2.4,2.7A3,3,0,0,1,287.44,200.75Z"/><path d="M338.19,106.94c0,3.35-2,4.2-4.14,4.2h-2.5v-8.31h2.32C336.09,102.83,338.19,103.51,338.19,106.94Zm-4.67,2.77h.65c1.19,0,2-.56,2-2.77s-.85-2.68-2-2.68h-.63Z"/><path d="M344.7,110.07l-.39,1.24a1.6,1.6,0,0,1-1.54-.92,2.15,2.15,0,0,1-1.92,1,1.92,1.92,0,0,1-2.07-2c0-1.39,1.05-2.14,3-2.14h.64v-.28c0-.75-.3-1-1.08-1a5.87,5.87,0,0,0-1.66.33l-.44-1.24a7.23,7.23,0,0,1,2.4-.47c1.85,0,2.64.78,2.64,2.25v2.47C344.27,109.79,344.4,110,344.7,110.07Zm-2.29-.69v-1.13H342c-.87,0-1.29.3-1.29.94a.71.71,0,0,0,.75.8A1.14,1.14,0,0,0,342.41,109.38Z"/><path d="M348.05,111.35c-1.4,0-2.08-.81-2.08-2.31v-3h-.9v-1.32h.9v-1.38l1.89-.21v1.59h1.46l-.2,1.32h-1.26V109c0,.61.21.83.6.83a1.21,1.21,0,0,0,.68-.22l.64,1.21A3.13,3.13,0,0,1,348.05,111.35Z"/><path d="M355.91,110.07l-.39,1.24a1.6,1.6,0,0,1-1.54-.92,2.16,2.16,0,0,1-1.92,1,1.92,1.92,0,0,1-2.07-2c0-1.39,1.05-2.14,3-2.14h.65v-.28c0-.75-.3-1-1.08-1a5.93,5.93,0,0,0-1.67.33l-.43-1.24a7.23,7.23,0,0,1,2.4-.47c1.85,0,2.64.78,2.64,2.25v2.47C355.48,109.79,355.61,110,355.91,110.07Zm-2.29-.69v-1.13h-.47c-.86,0-1.28.3-1.28.94a.71.71,0,0,0,.74.8A1.14,1.14,0,0,0,353.62,109.38Z"/><path d="M367,107c0,2.72-1.41,4.37-3.76,4.37s-3.74-1.6-3.74-4.37,1.4-4.35,3.74-4.35S367,104.21,367,107Zm-5.44,0c0,2.11.6,2.93,1.68,2.93s1.69-.82,1.69-2.93-.57-2.91-1.69-2.91S361.55,104.88,361.55,107Z"/><path d="M373.62,106.49v4.65h-1.89v-4.33c0-.67-.23-.85-.6-.85s-.77.3-1.1.83v4.35h-1.9v-6.37h1.66l.13.76a2.41,2.41,0,0,1,1.94-1A1.69,1.69,0,0,1,373.62,106.49Z"/><path d="M377.21,109.85a1,1,0,0,0,.31-.06l.38,1.34a3.51,3.51,0,0,1-1.23.22,1.58,1.58,0,0,1-1.68-1.8v-7.31l1.9-.2v7.31C376.89,109.71,377,109.85,377.21,109.85Z"/><path d="M378.55,113.8l-.21-1.33c1.25-.15,1.7-.51,2.05-1.33h-.64l-1.95-6.37h2l1.14,5.16,1.24-5.16h2l-2,6.38A3.53,3.53,0,0,1,378.55,113.8Z"/><path d="M277.74,129.48l-.09.66h-2.94v-5.51h.76v4.85Z"/><path d="M279.54,124.41a.49.49,0,0,1-.52.49.5.5,0,1,1,0-1A.49.49,0,0,1,279.54,124.41Zm-.88,5.73v-4.21h.73v4.21Z"/><path d="M284.12,127.12v3h-.74v-2.92c0-.63-.25-.81-.66-.81a1.27,1.27,0,0,0-1.07.74v3h-.73v-4.21h.63l.06.62a1.54,1.54,0,0,1,1.29-.72A1.16,1.16,0,0,1,284.12,127.12Z"/><path d="M285.6,130.14v-5.91l.74-.08v6Zm3.34,0h-.88l-1.67-2.3,1.55-1.91h.82l-1.55,1.86Z"/><path d="M295.27,128c0,1.3-.69,2.21-1.88,2.21s-1.88-.87-1.88-2.2.69-2.21,1.89-2.21S295.27,126.7,295.27,128Zm-3,0c0,1.09.38,1.61,1.08,1.61s1.09-.52,1.09-1.62-.38-1.61-1.08-1.61S292.31,126.94,292.31,128Z"/><path d="M299.7,127.12v3H299v-2.92c0-.63-.25-.81-.66-.81a1.27,1.27,0,0,0-1.07.74v3h-.74v-4.21h.63l.07.62a1.51,1.51,0,0,1,1.28-.72A1.16,1.16,0,0,1,299.7,127.12Z"/><path d="M306.5,127.12v3h-.73v-2.92c0-.63-.26-.81-.66-.81a1.27,1.27,0,0,0-1.08.74v3h-.73v-4.21h.63l.06.62a1.54,1.54,0,0,1,1.29-.72A1.15,1.15,0,0,1,306.5,127.12Z"/><path d="M311.15,128.29h-2.68c.07,1,.52,1.35,1.13,1.35a1.76,1.76,0,0,0,1.1-.37l.32.44a2.3,2.3,0,0,1-1.47.53c-1.18,0-1.87-.83-1.87-2.16s.67-2.25,1.75-2.25,1.74.79,1.74,2.08A3.79,3.79,0,0,1,311.15,128.29Zm-.71-.59c0-.83-.33-1.28-1-1.28s-.93.39-1,1.32h2Z"/><path d="M314.5,130.14l-1-1.78-1.05,1.78h-.83l1.47-2.22-1.31-2h.87l.88,1.54.89-1.54h.83l-1.3,2,1.46,2.25Z"/><path d="M317.37,130.24a1.06,1.06,0,0,1-1.14-1.2V126.5h-.73v-.57h.73v-1l.74-.09v1h1l-.08.57H317V129c0,.42.14.62.5.62a1.05,1.05,0,0,0,.56-.18l.28.5A1.61,1.61,0,0,1,317.37,130.24Z"/><path d="M324.82,126.34c0,1.26-.91,1.78-2.13,1.78H322v2h-.76v-5.51h1.45C324,124.63,324.82,125.18,324.82,126.34Zm-.8,0c0-.82-.53-1.12-1.35-1.12H322v2.3h.67C323.47,127.52,324,127.28,324,126.34Z"/><path d="M328.79,129.73l-.17.51a.86.86,0,0,1-.82-.63,1.42,1.42,0,0,1-1.25.63A1.23,1.23,0,0,1,325.2,129c0-.91.68-1.39,1.86-1.39h.65v-.32c0-.6-.3-.83-.88-.83a3.59,3.59,0,0,0-1.14.23l-.18-.54a4.15,4.15,0,0,1,1.45-.29c1,0,1.48.52,1.48,1.4v1.93C328.44,129.53,328.58,129.65,328.79,129.73Zm-1.08-.7v-1h-.56c-.77,0-1.16.29-1.16.87s.24.76.72.76A1.09,1.09,0,0,0,327.71,129Z"/><path d="M332.12,126.25a1.09,1.09,0,0,1,.74,1.06,1.43,1.43,0,0,1-1.6,1.43,1.64,1.64,0,0,1-.54-.08.51.51,0,0,0-.21.39c0,.2.12.35.56.35h.67c.86,0,1.44.49,1.44,1.17s-.68,1.28-2,1.28-1.81-.43-1.81-1.28h.67c0,.48.21.7,1.14.7s1.23-.23,1.23-.66-.32-.6-.85-.6h-.66c-.75,0-1.09-.37-1.09-.8a.91.91,0,0,1,.47-.74,1.19,1.19,0,0,1-.71-1.17,1.5,1.5,0,0,1,1.62-1.47,3.63,3.63,0,0,0,1.93-.37l.21.66A4.15,4.15,0,0,1,332.12,126.25Zm-1.78,1a.86.86,0,0,0,.89,1,.84.84,0,0,0,.88-1c0-.62-.3-.94-.9-.94A.84.84,0,0,0,330.34,127.3Z"/><path d="M337.16,128.29h-2.69c.08,1,.53,1.35,1.14,1.35a1.76,1.76,0,0,0,1.1-.37l.31.44a2.26,2.26,0,0,1-1.47.53c-1.17,0-1.86-.83-1.86-2.16s.66-2.25,1.75-2.25,1.74.79,1.74,2.08A3.79,3.79,0,0,1,337.16,128.29Zm-.71-.59c0-.83-.33-1.28-1-1.28s-.93.39-1,1.32h2Z"/><line class="cls-5" x1="125.07" y1="191.89" x2="151.07" y2="220.89"/><rect class="cls-4" x="157.07" y="191.89" width="32" height="29"/><path d="M39.56,187.57c0,1.17-.9,1.57-2.18,1.57H35.86v-5.51h1.31c1.36,0,2.16.43,2.16,1.39a1.23,1.23,0,0,1-1,1.21C38.93,186.34,39.56,186.64,39.56,187.57ZM36.62,186h.83c.62,0,1.1-.31,1.1-.89s-.49-.85-1.3-.85h-.63Zm2.15,1.6c0-.77-.58-1-1.24-1h-.91v2h.76C38.18,188.53,38.77,188.37,38.77,187.57Z"/><path d="M42.93,184.88l-.13.72a1.44,1.44,0,0,0-.37,0c-.53,0-.83.38-1,1.19v2.4h-.73v-4.21h.63l.07.85a1.2,1.2,0,0,1,1.13-.95A1.84,1.84,0,0,1,42.93,184.88Z"/><path d="M47.15,187c0,1.3-.69,2.21-1.88,2.21s-1.88-.87-1.88-2.2.69-2.21,1.89-2.21S47.15,185.7,47.15,187Zm-3,0c0,1.09.39,1.61,1.09,1.61s1.09-.52,1.09-1.62-.39-1.61-1.08-1.61S44.18,185.94,44.18,187Z"/><path d="M51.14,189.14l-.73-3.55-.76,3.55h-1l-1-4.21h.73l.76,3.7.83-3.7h.83l.79,3.7.77-3.7h.7l-1,4.21Z"/><path d="M56.6,185.31l-.32.49a1.81,1.81,0,0,0-1.09-.38c-.48,0-.78.21-.78.55s.23.5.91.68c.89.22,1.4.57,1.4,1.31s-.81,1.28-1.67,1.28a2.34,2.34,0,0,1-1.59-.55l.41-.47a1.77,1.77,0,0,0,1.17.43c.55,0,.9-.25.9-.62s-.21-.6-1-.81-1.27-.64-1.27-1.24.64-1.15,1.52-1.15A2.26,2.26,0,0,1,56.6,185.31Z"/><path d="M60.92,187.29H58.24c.07,1,.53,1.35,1.13,1.35a1.76,1.76,0,0,0,1.1-.37l.32.44a2.3,2.3,0,0,1-1.47.53c-1.18,0-1.86-.83-1.86-2.16s.66-2.25,1.75-2.25,1.73.79,1.73,2.08A3.79,3.79,0,0,1,60.92,187.29Zm-.71-.59c0-.83-.32-1.28-1-1.28s-.93.39-1,1.32h2Z"/><path d="M64.41,184.88l-.14.72a1.44,1.44,0,0,0-.37,0c-.53,0-.83.38-1,1.19v2.4h-.73v-4.21h.63l.07.85a1.21,1.21,0,0,1,1.13-.95A2,2,0,0,1,64.41,184.88Z"/><path class="cls-6" d="M50.07,217.89a12,12,0,1,1,12-12A12,12,0,0,1,50.07,217.89Z"/><path d="M50.07,194.89a11,11,0,1,1-11,11,11,11,0,0,1,11-11m0-2a13,13,0,1,0,13,13,13,13,0,0,0-13-13Z"/><path class="cls-2" d="M47.37,208.09h2v-5l-1.67,1-.85-1.26,2.68-1.63h1.71v6.86h1.54v1.45H47.37Z"/><g class="cls-11"><path class="cls-8" d="M79,76.64a69.8,69.8,0,0,0-45.85,63v7.28"/><polygon class="cls-9" points="76.11 72.44 85.85 74.54 79.16 81.93 76.11 72.44"/></g><g class="cls-12"><path class="cls-3" d="M261.72,136.22a71.56,71.56,0,0,0-53.65-62.16"/><polygon class="cls-7" points="266.49 134.46 262.07 143.39 256.54 135.09 266.49 134.46"/></g><g class="cls-13"><path class="cls-3" d="M363.84,136.22A109.51,109.51,0,0,0,254.57,33.89h-46.5"/><polygon class="cls-7" points="368.69 134.56 364.07 143.39 358.73 134.97 368.69 134.56"/></g><g class="cls-14"><path class="cls-8" d="M212.13,48.74a97.18,97.18,0,0,1,75.94,94.82v44.33"/><polygon class="cls-9" points="212.62 53.96 205.07 47.44 214.49 44.17 212.62 53.96"/></g></svg>