<svg id="Layer_1" data-name="Layer 1" xmlns="http://www.w3.org/2000/svg" viewBox="0 0 1065 285"><defs><style>.cls-1,.cls-2{fill:none;stroke:#000;stroke-miterlimit:10;}.cls-1{stroke-width:10px;}.cls-2{stroke-width:20px;}</style></defs><title>progressive-decouple</title><path d="M894.42,110.75l-7.14,21.15h-8.87l-7.15-21.15h7.79L882,122.32l1,4.13,1-4.07,3-11.63Z"/><path d="M915.79,110.75v12q0,4.74-2.54,7.08t-7.68,2.34q-5.12,0-7.67-2.34t-2.55-7.08v-12h7.5v12.63a3.59,3.59,0,0,0,.7,2.41,2.94,2.94,0,0,0,4.07,0,3.59,3.59,0,0,0,.71-2.41V110.75Z"/><path d="M918.58,131.9V110.75h17.56v5.48H926v2.63h8.14v5.06H926v2.5h10.48v5.48Z"/><rect class="cls-1" x="831" y="81" width="143" height="79"/><path d="M628.94,110.75V131.9h-7.46V110.75Zm9.93,7.79V124h-13.8v-5.48Zm3.34-7.79V131.9h-7.47V110.75Z"/><path d="M665.15,110.75v5.48h-6.61V131.9h-7.46V116.23h-6.63v-5.48Z"/><path d="M694.56,110.75V131.9h-6.51v-7.34l.1-7.11h-.1L684,131.9h-6l-4-14.45h-.13l.09,7.11v7.34h-6.53V110.75h10.44l2.44,9.39.93,3.94h.06l.93-3.94,2.43-9.39Z"/><path d="M705.22,126.42h9.58v5.48h-17V110.75h7.46Z"/><rect class="cls-1" x="594" y="81" width="237" height="79"/><path d="M92.13,100.6q7.66,0,11.57,4.25t3.91,12.07q0,7.77-3.91,12t-11.57,4.28h-16V100.6ZM90.5,125q3.21,0,4.28-2a13.5,13.5,0,0,0,1.06-6.16,13.48,13.48,0,0,0-1.06-6.16q-1.07-2-4.28-2H87.63V125Z"/><path d="M111,133.24V108.51h10.24l.25,6.18a11.06,11.06,0,0,1,2.59-4.87,6.24,6.24,0,0,1,4.68-1.8,5.56,5.56,0,0,1,1.73.2,3,3,0,0,1,.84.39l-.94,9.15a6,6,0,0,0-1.29-.35,10.47,10.47,0,0,0-1.83-.14,6.52,6.52,0,0,0-2.57.46,4,4,0,0,0-1.7,1.36,3.88,3.88,0,0,0-.62,2.28v11.87Z"/><path d="M140.89,133.73a10,10,0,0,1-4.35-.86,5.81,5.81,0,0,1-2.72-2.75,10.89,10.89,0,0,1-.94-4.89V108.51h11.37v14.1a3.59,3.59,0,0,0,.47,2.07,1.65,1.65,0,0,0,1.41.65,2,2,0,0,0,1-.23,1.82,1.82,0,0,0,.69-.66,3.78,3.78,0,0,0,.42-1.17,8.07,8.07,0,0,0,.15-1.65V108.51h11.37v24.73H149.49l-.24-5.24a8.84,8.84,0,0,1-3.19,4.3A9,9,0,0,1,140.89,133.73Z"/><path d="M163.59,143.62V108.51h10.33l.55,10.88-1.29-1.28a13.48,13.48,0,0,1,1.24-5.2,8.83,8.83,0,0,1,3-3.58A8,8,0,0,1,182,108a8.59,8.59,0,0,1,5.17,1.51,9.17,9.17,0,0,1,3.19,4.32,19.06,19.06,0,0,1,1.09,6.88,19.81,19.81,0,0,1-1.11,7,9.58,9.58,0,0,1-3.24,4.45,8.6,8.6,0,0,1-5.15,1.53,6.73,6.73,0,0,1-5.53-2.35,11.55,11.55,0,0,1-2.43-5.91l1-1.48v19.63Zm13.79-17.9a2.19,2.19,0,0,0,1.88-1c.47-.65.7-1.94.7-3.88s-.23-3.25-.7-3.91a2.17,2.17,0,0,0-1.88-1,1.77,1.77,0,0,0-1.28.52,3.41,3.41,0,0,0-.84,1.58,10.62,10.62,0,0,0-.3,2.8,12,12,0,0,0,.25,2.67,3.32,3.32,0,0,0,.79,1.63A1.87,1.87,0,0,0,177.38,125.72Z"/><path d="M207.6,117.81a2.74,2.74,0,0,0-.52-1.78,1.94,1.94,0,0,0-1.61-.64,2.54,2.54,0,0,0-1.73.59,3.38,3.38,0,0,0-.79,2.37L193.36,117a8.71,8.71,0,0,1,3.56-6.53c2.14-1.61,5.26-2.42,9.34-2.42a18.31,18.31,0,0,1,7.1,1.18,8.46,8.46,0,0,1,5.51,8.26v7.67c0,1.35.65,2,1.93,2a1.85,1.85,0,0,0,.84-.15l-.49,5.83a9.9,9.9,0,0,1-4.4.89,11.73,11.73,0,0,1-4.13-.67,6,6,0,0,1-2.82-2,5.66,5.66,0,0,1-1-3.49v-.49h1.08a5.58,5.58,0,0,1-1.21,3.38,8,8,0,0,1-3.09,2.4,10.26,10.26,0,0,1-4.4.89,11,11,0,0,1-4.43-.79,6,6,0,0,1-2.74-2.27,6.4,6.4,0,0,1-.94-3.51,6,6,0,0,1,1.73-4.43,9.59,9.59,0,0,1,5-2.35l8.6-1.78,0,4-2.67.64a2.56,2.56,0,0,0-1.48.81,2.2,2.2,0,0,0-.45,1.41,1.75,1.75,0,0,0,.5,1.29,1.86,1.86,0,0,0,1.38.49,2.28,2.28,0,0,0,.77-.14,1.78,1.78,0,0,0,.64-.45,2.14,2.14,0,0,0,.42-.72,2.85,2.85,0,0,0,.15-1Z"/><path d="M234.65,98.62V123.4a4.17,4.17,0,0,0,.44,2.17,1.74,1.74,0,0,0,1.59.7,5.47,5.47,0,0,0,1-.08l.82-.17-.5,6.13a7.92,7.92,0,0,1-2.69,1.14,14.3,14.3,0,0,1-3.44.44q-4.61,0-6.58-2t-2-6.62V98.62Z"/><path d="M363.16,113.44v19.8h-7v-19.8Zm9.3,7.29v5.13H359.53v-5.13Zm3.12-7.29v19.8h-7v-19.8Z"/><path d="M397.06,113.44v5.13h-6.18v14.67h-7V118.57h-6.21v-5.13Z"/><path d="M424.6,113.44v19.8h-6.09v-6.87l.09-6.66h-.09l-3.84,13.53h-5.58l-3.78-13.53h-.12l.09,6.66v6.87h-6.12v-19.8h9.78l2.28,8.79.87,3.69h.06l.87-3.69,2.28-8.79Z"/><path d="M434.59,128.11h9v5.13h-16v-19.8h7Z"/><path d="M376,230.44v11.64a8.08,8.08,0,0,1-2.4,6.24q-2.4,2.22-6.93,2.22a10.5,10.5,0,0,1-5.33-1.17,6,6,0,0,1-2.73-3.21,9.36,9.36,0,0,1-.34-4.62l6.93-1.17a7.77,7.77,0,0,0,.1,3.87,1.76,1.76,0,0,0,1.73,1,1.6,1.6,0,0,0,1.5-.87,6.24,6.24,0,0,0,.48-2.85V230.44Z"/><path d="M387.18,230.14a17.16,17.16,0,0,1,5.11.7,12,12,0,0,1,4,2.12l-2.82,4.5a13.9,13.9,0,0,0-3-1.59,9.13,9.13,0,0,0-3.34-.6,5.22,5.22,0,0,0-1.25.12,1.35,1.35,0,0,0-.66.33.68.68,0,0,0-.19.48c0,.24.18.42.55.54s.84.25,1.4.39l2.73.63a10.4,10.4,0,0,1,4.57,2,4.72,4.72,0,0,1,1.55,3.75,6.34,6.34,0,0,1-1.17,3.94,6.94,6.94,0,0,1-3.17,2.3,12.73,12.73,0,0,1-4.51.75,21,21,0,0,1-3.78-.35,17.07,17.07,0,0,1-3.51-1,11.08,11.08,0,0,1-2.79-1.63l2.76-4.59a10,10,0,0,0,2.1,1.24,15.1,15.1,0,0,0,2.55.89,10.18,10.18,0,0,0,2.46.33,4.46,4.46,0,0,0,1.09-.11,1.3,1.3,0,0,0,.6-.3.6.6,0,0,0,.2-.43.7.7,0,0,0-.32-.66,3.92,3.92,0,0,0-1.27-.45l-3-.66a18.46,18.46,0,0,1-3-1,5.68,5.68,0,0,1-2.34-1.76,5,5,0,0,1-.9-3.13,6,6,0,0,1,1.09-3.57,7.1,7.1,0,0,1,3.18-2.39A13.36,13.36,0,0,1,387.18,230.14Z"/><path d="M407.4,230.14a11.33,11.33,0,0,1,5.4,1.2,8.16,8.16,0,0,1,3.45,3.48,13.3,13.3,0,0,1,0,11,8.16,8.16,0,0,1-3.45,3.48,12.73,12.73,0,0,1-10.79,0,8.23,8.23,0,0,1-3.48-3.48,13.2,13.2,0,0,1,0-11,8.23,8.23,0,0,1,3.48-3.48A11.37,11.37,0,0,1,407.4,230.14Zm0,5.25a2.57,2.57,0,0,0-1.67.52,3.15,3.15,0,0,0-1,1.61,12.89,12.89,0,0,0,0,5.62,3.14,3.14,0,0,0,1,1.62,2.57,2.57,0,0,0,1.67.53,2.54,2.54,0,0,0,1.66-.53,3.06,3.06,0,0,0,.95-1.62,13.31,13.31,0,0,0,0-5.62,3.07,3.07,0,0,0-.95-1.61A2.54,2.54,0,0,0,407.4,235.39Z"/><path d="M439.2,230.44v19.8h-7.56l-4.74-9-1.08-2.43h-.06l.12,4.08v7.35h-6.06v-19.8h7.56l4.74,9,1.08,2.4h.06l-.12-4.08v-7.35Z"/><rect class="cls-2" x="9.55" y="50.05" width="293" height="142"/><path d="M555,23.19V3.39h11.34a9.8,9.8,0,0,1,5.58,1.33,4.53,4.53,0,0,1,1.83,4,4.39,4.39,0,0,1-1.08,3,5.35,5.35,0,0,1-3.39,1.56v0a5.9,5.9,0,0,1,3.78,1.53,4.43,4.43,0,0,1,1.2,3.18,4.55,4.55,0,0,1-1.75,3.91,9,9,0,0,1-5.39,1.31Zm6.69-12.12h3.12q1.8,0,1.8-1.44t-1.8-1.44H561.7Zm0,7.56h3.57a2.21,2.21,0,0,0,1.4-.38,1.31,1.31,0,0,0,.46-1.09,1.24,1.24,0,0,0-.46-1.05,2.27,2.27,0,0,0-1.4-.36H561.7Z"/><path d="M575.8,23.19v-15H582l.15,3.75a6.71,6.71,0,0,1,1.58-3,3.76,3.76,0,0,1,2.83-1.09,3.51,3.51,0,0,1,1,.12,1.74,1.74,0,0,1,.51.24l-.57,5.55a3.51,3.51,0,0,0-.78-.21,6.4,6.4,0,0,0-1.11-.09,3.92,3.92,0,0,0-1.56.28A2.24,2.24,0,0,0,582.7,16v7.2Z"/><path d="M596.92,7.89a9.94,9.94,0,0,1,4.4.91,6.84,6.84,0,0,1,2.92,2.66,8,8,0,0,1,1,4.23,8,8,0,0,1-1,4.21,6.8,6.8,0,0,1-2.92,2.67,10.93,10.93,0,0,1-8.78,0,6.79,6.79,0,0,1-2.94-2.67,8,8,0,0,1-1.05-4.21,8,8,0,0,1,1.05-4.23,6.83,6.83,0,0,1,2.94-2.66A9.94,9.94,0,0,1,596.92,7.89Zm0,4.65a1.23,1.23,0,0,0-.78.25,1.66,1.66,0,0,0-.49,1,8.81,8.81,0,0,0-.17,1.95,8.54,8.54,0,0,0,.17,1.93,1.73,1.73,0,0,0,.49.95,1.29,1.29,0,0,0,1.58,0,1.8,1.8,0,0,0,.48-.95,8.65,8.65,0,0,0,.16-1.93,8.91,8.91,0,0,0-.16-1.95,1.72,1.72,0,0,0-.48-1A1.23,1.23,0,0,0,596.92,12.54Z"/><path d="M627,8.19h7.14l-4.08,15h-8.58l-1.74-7.38L618,23.19h-8.58l-4.08-15h7.14l1.71,10.29L616.3,8.19h6.78l2.16,10.29Z"/><path d="M641.89,23.49a14.72,14.72,0,0,1-4.21-.6,10.25,10.25,0,0,1-3.53-1.8l2.46-3.57a7.64,7.64,0,0,0,2.13,1.27,6.77,6.77,0,0,0,2.64.56,3.26,3.26,0,0,0,.92-.12c.27-.08.4-.22.4-.42a.38.38,0,0,0-.22-.36,3.83,3.83,0,0,0-1-.24L640.42,18a10.14,10.14,0,0,1-4.62-1.8,4,4,0,0,1-1.35-3.15,4.31,4.31,0,0,1,.8-2.42,5.78,5.78,0,0,1,2.53-2,11.35,11.35,0,0,1,4.59-.78,14,14,0,0,1,4.2.58,8.38,8.38,0,0,1,3,1.61l-2.37,3.42a6.59,6.59,0,0,0-2.14-1.07,8.12,8.12,0,0,0-2.39-.4,4.11,4.11,0,0,0-.78.06,1,1,0,0,0-.43.16.33.33,0,0,0-.14.26q0,.21.3.39a3.85,3.85,0,0,0,1.17.33l2.13.36a6.18,6.18,0,0,1,3.56,1.56A4,4,0,0,1,649.63,18a4.93,4.93,0,0,1-.79,2.71,5.47,5.47,0,0,1-2.49,2A11.16,11.16,0,0,1,641.89,23.49Z"/><path d="M659,23.49a10.66,10.66,0,0,1-4.62-.92,6.6,6.6,0,0,1-2.94-2.65,8.23,8.23,0,0,1-1-4.23,8.14,8.14,0,0,1,1-4.23,6.76,6.76,0,0,1,2.91-2.66,9.82,9.82,0,0,1,4.36-.91,9.44,9.44,0,0,1,4.34.91,6.36,6.36,0,0,1,2.71,2.57,7.69,7.69,0,0,1,.93,3.84c0,.32,0,.65,0,1a7.63,7.63,0,0,1-.11.81h-11.7V14.46h8.7l-3.27,1.29a8.12,8.12,0,0,0-.28-2.46,1.19,1.19,0,0,0-1.25-.84,1.68,1.68,0,0,0-1,.3,1.74,1.74,0,0,0-.59,1,9,9,0,0,0-.18,2,6.14,6.14,0,0,0,.24,2,1.49,1.49,0,0,0,.71.9,2.69,2.69,0,0,0,1.18.23,1.93,1.93,0,0,0,1.22-.35,1.67,1.67,0,0,0,.58-.94l5.55,1.5A4.39,4.39,0,0,1,665,21.55,7.45,7.45,0,0,1,662.25,23,11.14,11.14,0,0,1,659,23.49Z"/><path d="M668.38,23.19v-15h6.21l.15,3.75a6.71,6.71,0,0,1,1.58-3,3.74,3.74,0,0,1,2.83-1.09A3.51,3.51,0,0,1,680.2,8a1.74,1.74,0,0,1,.51.24l-.57,5.55a3.51,3.51,0,0,0-.78-.21,6.4,6.4,0,0,0-1.11-.09,3.92,3.92,0,0,0-1.56.28A2.24,2.24,0,0,0,675.28,16v7.2Z"/><rect class="cls-2" x="558" y="50" width="451" height="142"/><polyline class="cls-2" points="462 84.05 499 121.05 462 158.05"/><polyline class="cls-1" points="184 229.53 184 267 904 267 904 166.53"/><polygon points="169.04 233.9 184 208 198.96 233.9 169.04 233.9"/><polygon points="918.96 170.9 904 145 889.04 170.9 918.96 170.9"/></svg>