<svg id="Layer_1" data-name="Layer 1" xmlns="http://www.w3.org/2000/svg" xmlns:xlink="http://www.w3.org/1999/xlink" viewBox="0 0 336 274"><defs><style>.cls-1,.cls-3,.cls-5,.cls-7,.cls-9{fill:none;}.cls-2,.cls-4{fill:#fff;}.cls-3{stroke:#006984;}.cls-3,.cls-4,.cls-5,.cls-7,.cls-9{stroke-miterlimit:10;stroke-width:2px;}.cls-4,.cls-5{stroke:#000;}.cls-6{fill:#006984;}.cls-7,.cls-9{stroke:#ca0022;}.cls-7{stroke-dasharray:3 3;}.cls-8{fill:#ca0022;}.cls-9{stroke-dasharray:3;}.cls-10{fill:#0054a2;}.cls-11{clip-path:url(#clip-path);}.cls-12{clip-path:url(#clip-path-2);}</style><clipPath id="clip-path"><path id="SVGID" class="cls-1" d="M19.42,67.15v80h71v-80Zm17,67c-4.41,0-8-2.69-8-6s3.59-6,8-6,8,2.69,8,6S40.84,134.15,36.42,134.15Z"/></clipPath><clipPath id="clip-path-2"><path id="SVGID-2" data-name="SVGID" class="cls-1" d="M202.42,63.15v82h105v-82Zm51,52a8,8,0,1,1,8-8A8,8,0,0,1,253.42,115.15Z"/></clipPath></defs><title>traditional-html</title><path class="cls-2" d="M152.23,26.49a19.16,19.16,0,0,0-4,.43,19,19,0,0,0-33.9-8.75A10.26,10.26,0,0,0,101.13,28a10,10,0,0,0,.15,1.65,18.42,18.42,0,0,0,7,35.21v0h43.91a19.2,19.2,0,0,0,0-38.4Z"/><path class="cls-3" d="M152.23,26.49a19.16,19.16,0,0,0-4,.43,19,19,0,0,0-33.9-8.75A10.26,10.26,0,0,0,101.13,28a10,10,0,0,0,.15,1.65,18.42,18.42,0,0,0,7,35.21v0h43.91a19.2,19.2,0,0,0,0-38.4Z"/><rect class="cls-2" x="119.42" y="171.15" width="78" height="62"/><path d="M196.42,172.15v60h-76v-60h76m2-2h-80v64h80v-64Z"/><rect class="cls-2" x="119.42" y="171.15" width="78" height="8"/><path d="M196.42,172.15v6h-76v-6h76m2-2h-80v10h80v-10Z"/><line class="cls-4" x1="132.42" y1="175.15" x2="194.42" y2="175.15"/><rect x="122.42" y="174.15" width="2" height="2"/><rect x="125.42" y="174.15" width="2" height="2"/><rect class="cls-2" x="222.42" y="171.15" width="78" height="62"/><path d="M299.42,172.15v60h-76v-60h76m2-2h-80v64h80v-64Z"/><rect class="cls-2" x="222.42" y="171.15" width="78" height="8"/><path d="M299.42,172.15v6h-76v-6h76m2-2h-80v10h80v-10Z"/><line class="cls-4" x1="235.42" y1="175.15" x2="297.42" y2="175.15"/><rect x="225.42" y="174.15" width="2" height="2"/><rect x="228.42" y="174.15" width="2" height="2"/><rect class="cls-2" x="11.42" y="171.15" width="78" height="62"/><path d="M88.42,172.15v60h-76v-60h76m2-2h-80v64h80v-64Z"/><rect class="cls-2" x="11.42" y="171.15" width="78" height="8"/><path d="M88.42,172.15v6h-76v-6h76m2-2h-80v10h80v-10Z"/><line class="cls-4" x1="24.42" y1="175.15" x2="86.42" y2="175.15"/><rect x="14.42" y="174.15" width="2" height="2"/><rect x="17.42" y="174.15" width="2" height="2"/><line class="cls-4" x1="127.42" y1="188.15" x2="186.42" y2="188.15"/><line class="cls-4" x1="127.42" y1="194.15" x2="187.42" y2="194.15"/><line class="cls-4" x1="127.42" y1="200.15" x2="186.42" y2="200.15"/><line class="cls-4" x1="127.42" y1="206.15" x2="189.42" y2="206.15"/><line class="cls-4" x1="127.42" y1="212.15" x2="186.42" y2="212.15"/><line class="cls-4" x1="127.42" y1="218.15" x2="189.42" y2="218.15"/><line class="cls-4" x1="127.42" y1="224.15" x2="186.42" y2="224.15"/><line class="cls-4" x1="261.42" y1="192.08" x2="296.42" y2="192.08"/><line class="cls-4" x1="261.42" y1="197.15" x2="290.42" y2="197.15"/><line class="cls-4" x1="261.42" y1="203.15" x2="294.42" y2="203.15"/><line class="cls-4" x1="261.42" y1="209.15" x2="290.42" y2="209.15"/><line class="cls-4" x1="261.42" y1="215.15" x2="296.42" y2="215.15"/><line class="cls-4" x1="261.42" y1="221.15" x2="290.42" y2="221.15"/><rect class="cls-2" x="112.42" y="58.15" width="78" height="18"/><path d="M189.42,59.15v16h-76v-16h76m2-2h-80v20h80v-20Z"/><path d="M124.42,65.15v4h-4v-4h4m2-2h-8v8h8v-8Z"/><path d="M137.42,65.15v4h-4v-4h4m2-2h-8v8h8v-8Z"/><line class="cls-5" x1="165.42" y1="61.15" x2="165.42" y2="72.15"/><line class="cls-5" x1="147.42" y1="61.15" x2="147.42" y2="72.15"/><line class="cls-5" x1="156.42" y1="61.15" x2="156.42" y2="72.15"/><line class="cls-5" x1="183.42" y1="61.15" x2="183.42" y2="72.15"/><line class="cls-5" x1="174.42" y1="61.15" x2="174.42" y2="72.15"/><rect class="cls-2" x="112.42" y="34.15" width="78" height="18"/><path d="M189.42,35.15v16h-76v-16h76m2-2h-80v20h80v-20Z"/><path d="M124.42,41.15v4h-4v-4h4m2-2h-8v8h8v-8Z"/><path d="M137.42,41.15v4h-4v-4h4m2-2h-8v8h8v-8Z"/><line class="cls-5" x1="165.42" y1="37.15" x2="165.42" y2="48.15"/><line class="cls-5" x1="147.42" y1="37.15" x2="147.42" y2="48.15"/><line class="cls-5" x1="156.42" y1="37.15" x2="156.42" y2="48.15"/><line class="cls-5" x1="183.42" y1="37.15" x2="183.42" y2="48.15"/><line class="cls-5" x1="174.42" y1="37.15" x2="174.42" y2="48.15"/><path d="M16.47,156.8l-.85-4.68-.84,4.68H12.53l-1.35-6.37H13.1l.66,5,1-5H16.6l.87,5,.77-5h1.81l-1.32,6.37Z"/><path d="M25.45,156.8l-.85-4.68-.84,4.68H21.52l-1.35-6.37h1.91l.66,5,1-5h1.85l.87,5,.77-5H29l-1.32,6.37Z"/><path d="M34.44,156.8l-.85-4.68-.84,4.68H30.51l-1.36-6.37h1.92l.66,5,1-5h1.84l.88,5,.77-5H38l-1.32,6.37Z"/><path d="M40.37,155.91a1.09,1.09,0,1,1-1.08-1.08A1.09,1.09,0,0,1,40.37,155.91Z"/><path d="M43.74,157c-1.4,0-2.08-.81-2.08-2.31v-2.95h-.9v-1.32h.9v-1.38l1.89-.21v1.59H45l-.21,1.32H43.55v2.93c0,.61.21.83.6.83a1.21,1.21,0,0,0,.68-.22l.64,1.21A3.13,3.13,0,0,1,43.74,157Z"/><path d="M51.51,154.18H47.56c.13,1.13.67,1.45,1.45,1.45a2.53,2.53,0,0,0,1.52-.57l.78,1.06a3.92,3.92,0,0,1-2.48.89c-2.12,0-3.2-1.37-3.2-3.36s1-3.42,3-3.42,2.94,1.2,2.94,3.26C51.54,153.7,51.53,154,51.51,154.18ZM49.68,153c0-.86-.27-1.46-1-1.46s-1,.41-1.09,1.55h2.12Z"/><path d="M57.22,151l-.7,1.08a2.76,2.76,0,0,0-1.51-.51c-.57,0-.83.2-.83.48s.17.48,1.31.82,2,.89,2,2c0,1.32-1.25,2.1-2.83,2.1a4,4,0,0,1-2.67-.95L52.9,155a2.65,2.65,0,0,0,1.67.64c.59,0,.93-.22.93-.59s-.19-.57-1.34-.9-1.88-1-1.88-2,1-1.94,2.6-1.94A3.72,3.72,0,0,1,57.22,151Z"/><path d="M60.7,157c-1.4,0-2.09-.81-2.09-2.31v-2.95h-.9v-1.32h.9v-1.38l1.9-.21v1.59H62l-.2,1.32H60.51v2.93c0,.61.2.83.6.83a1.23,1.23,0,0,0,.68-.22l.64,1.21A3.15,3.15,0,0,1,60.7,157Z"/><path d="M64.84,155.91a1.09,1.09,0,1,1-1.08-1.08A1.09,1.09,0,0,1,64.84,155.91Z"/><path d="M70.77,151l-.83,1.14a1.79,1.79,0,0,0-1.2-.47c-.82,0-1.28.55-1.28,2s.5,1.85,1.25,1.85A1.8,1.8,0,0,0,69.9,155l.87,1.21a3.33,3.33,0,0,1-2.15.76,3,3,0,0,1-3.16-3.34c0-2,1.22-3.44,3.12-3.44A3.21,3.21,0,0,1,70.77,151Z"/><path d="M77.06,152.15v4.65H75.17v-4.33c0-.67-.24-.85-.6-.85s-.77.3-1.1.82v4.36h-1.9v-8.9l1.9-.19v3.41a2.3,2.3,0,0,1,1.83-.89A1.69,1.69,0,0,1,77.06,152.15Z"/><line class="cls-3" x1="120.42" y1="115.15" x2="120.42" y2="151.98"/><polygon class="cls-6" points="115.44 150.52 120.42 159.15 125.41 150.52 115.44 150.52"/><line class="cls-7" x1="182.42" y1="119.15" x2="182.42" y2="93.33"/><polygon class="cls-8" points="187.41 94.78 182.43 86.15 177.44 94.78 187.41 94.78"/><line class="cls-9" x1="182.42" y1="156.15" x2="182.42" y2="134.15"/><rect class="cls-5" x="229.42" y="192.15" width="26" height="29"/><polyline class="cls-5" points="229.43 212.34 235.02 206.75 241.43 213.15 250.43 204.15 255.18 208.9"/><circle class="cls-5" cx="241.42" cy="200.15" r="4"/><path d="M108,107.84v3.56h-2v-8.31h2v3.21h2.5v-3.21h2v8.31h-2v-3.56Z"/><path d="M118.09,104.6v6.8h-2v-6.8H114v-1.51h6.35l-.19,1.51Z"/><path d="M127.81,111.4l-.14-3.25a32.23,32.23,0,0,1,0-3.39l-1.28,5.77H124.5l-1.37-5.77a28,28,0,0,1,0,3.42L123,111.4h-1.91l.62-8.31h2.48l1.25,5.64,1.16-5.64h2.5l.62,8.31Z"/><path d="M136.81,109.84l-.2,1.56h-5v-8.31h2v6.75Z"/><path d="M156.47,128.07v2.33h-.76v-5.51h1.45c1.38,0,2.1.53,2.1,1.56a1.44,1.44,0,0,1-1.2,1.48l1.49,2.47h-.9l-1.32-2.33Zm2-1.62c0-.69-.39-1-1.3-1h-.68v2h.77C158,127.48,158.45,127.2,158.45,126.45Z"/><path d="M163.48,128.55h-2.69c.08,1,.53,1.35,1.14,1.35a1.73,1.73,0,0,0,1.09-.37l.32.44a2.26,2.26,0,0,1-1.47.53c-1.17,0-1.86-.83-1.86-2.16s.66-2.25,1.75-2.25,1.74.79,1.74,2.08C163.5,128.31,163.49,128.45,163.48,128.55Zm-.71-.59c0-.83-.33-1.28-1-1.28s-.93.39-1,1.32h2Z"/><path d="M167.94,132.1l-.74-.08v-2.18a1.41,1.41,0,0,1-1.2.66c-1,0-1.59-.87-1.59-2.19s.62-2.22,1.66-2.22a1.56,1.56,0,0,1,1.18.57l.05-.47h.64Zm-.74-2.81v-2.06a1.19,1.19,0,0,0-1-.55c-.63,0-1,.52-1,1.62s.35,1.61,1,1.61A1.21,1.21,0,0,0,167.2,129.29Z"/><path d="M172,130.4l-.06-.65a1.41,1.41,0,0,1-1.31.75,1.13,1.13,0,0,1-1.17-1.29v-3h.73v2.94c0,.58.19.79.65.79a1.27,1.27,0,0,0,1.06-.73v-3h.73v4.21Z"/><path d="M177.28,128.55h-2.69c.08,1,.53,1.35,1.14,1.35a1.73,1.73,0,0,0,1.09-.37l.32.44a2.26,2.26,0,0,1-1.47.53c-1.17,0-1.86-.83-1.86-2.16s.66-2.25,1.75-2.25,1.74.79,1.74,2.08C177.3,128.31,177.29,128.45,177.28,128.55Zm-.71-.59c0-.83-.33-1.28-1-1.28s-.93.39-1,1.32h2Z"/><path d="M181.09,126.57l-.32.49a1.81,1.81,0,0,0-1.09-.38c-.48,0-.77.21-.77.55s.22.5.9.68c.89.22,1.4.57,1.4,1.31s-.81,1.28-1.67,1.28A2.34,2.34,0,0,1,178,130l.41-.47a1.77,1.77,0,0,0,1.17.43c.55,0,.9-.25.9-.62s-.21-.6-1-.81-1.27-.64-1.27-1.24.65-1.15,1.52-1.15A2.26,2.26,0,0,1,181.09,126.57Z"/><path d="M183.43,130.5a1.06,1.06,0,0,1-1.13-1.2v-2.54h-.74v-.57h.74v-1l.73-.09v1h1l-.08.57H183v2.51c0,.42.14.62.51.62a1.11,1.11,0,0,0,.56-.18l.28.5A1.64,1.64,0,0,1,183.43,130.5Z"/><path d="M190.45,130l-.17.51a.85.85,0,0,1-.82-.63,1.45,1.45,0,0,1-1.26.63,1.22,1.22,0,0,1-1.34-1.27c0-.91.68-1.39,1.85-1.39h.65v-.32c0-.6-.3-.83-.88-.83a3.59,3.59,0,0,0-1.13.23l-.19-.54a4.16,4.16,0,0,1,1.46-.29,1.29,1.29,0,0,1,1.48,1.4v1.93C190.1,129.79,190.23,129.91,190.45,130Zm-1.09-.7v-1h-.55q-1.17,0-1.17.87a.67.67,0,0,0,.73.76A1.09,1.09,0,0,0,189.36,129.29Z"/><path d="M194.18,126.57l-.32.49a1.76,1.76,0,0,0-1.08-.38c-.48,0-.78.21-.78.55s.22.5.9.68c.89.22,1.4.57,1.4,1.31s-.8,1.28-1.66,1.28a2.34,2.34,0,0,1-1.59-.55l.41-.47a1.77,1.77,0,0,0,1.16.43c.56,0,.91-.25.91-.62s-.21-.6-1-.81-1.27-.64-1.27-1.24.65-1.15,1.52-1.15A2.26,2.26,0,0,1,194.18,126.57Z"/><path d="M197.92,126.57l-.32.49a1.81,1.81,0,0,0-1.09-.38c-.48,0-.77.21-.77.55s.22.5.9.68c.89.22,1.4.57,1.4,1.31s-.81,1.28-1.66,1.28a2.32,2.32,0,0,1-1.59-.55l.4-.47a1.79,1.79,0,0,0,1.17.43c.55,0,.9-.25.9-.62s-.2-.6-1-.81-1.27-.64-1.27-1.24.65-1.15,1.52-1.15A2.26,2.26,0,0,1,197.92,126.57Z"/><path d="M202.25,128.55h-2.69c.07,1,.53,1.35,1.14,1.35a1.75,1.75,0,0,0,1.09-.37l.32.44a2.28,2.28,0,0,1-1.47.53c-1.18,0-1.86-.83-1.86-2.16s.66-2.25,1.75-2.25,1.73.79,1.73,2.08C202.26,128.31,202.25,128.45,202.25,128.55Zm-.71-.59c0-.83-.33-1.28-1-1.28s-.92.39-1,1.32h2Z"/><path d="M204.66,130.5a1.06,1.06,0,0,1-1.13-1.2v-2.54h-.74v-.57h.74v-1l.73-.09v1h1l-.08.57h-.92v2.51c0,.42.14.62.51.62a1.11,1.11,0,0,0,.56-.18l.28.5A1.64,1.64,0,0,1,204.66,130.5Z"/><path d="M208.94,126.57l-.32.49a1.76,1.76,0,0,0-1.08-.38c-.48,0-.78.21-.78.55s.22.5.9.68c.89.22,1.4.57,1.4,1.31s-.8,1.28-1.66,1.28a2.34,2.34,0,0,1-1.59-.55l.41-.47a1.77,1.77,0,0,0,1.16.43c.56,0,.91-.25.91-.62s-.21-.6-1-.81-1.27-.64-1.27-1.24.65-1.15,1.52-1.15A2.26,2.26,0,0,1,208.94,126.57Z"/><path d="M40.92,187.83c0,1.17-.9,1.57-2.18,1.57H37.22v-5.51h1.3c1.36,0,2.16.43,2.16,1.39a1.23,1.23,0,0,1-1,1.21C40.29,186.6,40.92,186.9,40.92,187.83ZM38,186.23h.83c.61,0,1.09-.31,1.09-.89s-.48-.85-1.3-.85H38Zm2.14,1.6c0-.77-.58-1-1.24-1H38v2h.76C39.54,188.79,40.12,188.63,40.12,187.83Z"/><path d="M44.29,185.14l-.14.72a1.38,1.38,0,0,0-.37-.05c-.52,0-.83.38-1,1.19v2.4H42v-4.21h.63l.08.85a1.19,1.19,0,0,1,1.12-.95A1.93,1.93,0,0,1,44.29,185.14Z"/><path d="M48.5,187.29c0,1.3-.68,2.21-1.88,2.21s-1.87-.87-1.87-2.2.68-2.21,1.88-2.21S48.5,186,48.5,187.29Zm-3,0c0,1.09.38,1.61,1.08,1.61s1.09-.52,1.09-1.62-.38-1.61-1.08-1.61S45.54,186.2,45.54,187.3Z"/><path d="M52.5,189.4l-.74-3.55L51,189.4H50l-1-4.21h.74l.76,3.7.83-3.7h.82l.79,3.7.77-3.7h.7l-1,4.21Z"/><path d="M58,185.57l-.32.49a1.78,1.78,0,0,0-1.09-.38c-.48,0-.77.21-.77.55s.22.5.9.68c.89.22,1.4.57,1.4,1.31s-.81,1.28-1.66,1.28a2.34,2.34,0,0,1-1.59-.55l.4-.47a1.79,1.79,0,0,0,1.17.43c.55,0,.91-.25.91-.62s-.21-.6-1-.81S55,186.84,55,186.24s.65-1.15,1.52-1.15A2.26,2.26,0,0,1,58,185.57Z"/><path d="M62.28,187.55H59.59c.08,1,.53,1.35,1.14,1.35a1.73,1.73,0,0,0,1.09-.37l.32.44a2.26,2.26,0,0,1-1.47.53c-1.17,0-1.86-.83-1.86-2.16s.66-2.25,1.75-2.25,1.74.79,1.74,2.08C62.3,187.31,62.29,187.45,62.28,187.55Zm-.71-.59c0-.83-.33-1.28-1-1.28s-.93.39-1,1.32h2Z"/><path d="M65.76,185.14l-.14.72a1.3,1.3,0,0,0-.36-.05c-.53,0-.84.38-1,1.19v2.4h-.74v-4.21h.63l.08.85a1.19,1.19,0,0,1,1.12-.95A1.93,1.93,0,0,1,65.76,185.14Z"/><path d="M116.84,26.62c0,2.25-1.4,2.78-2.59,2.78h-1.32V23.89h1.15C115.49,23.89,116.84,24.33,116.84,26.62Zm-3.15,2.18h.61c.87,0,1.73-.37,1.73-2.18s-.9-2.12-1.78-2.12h-.56Z"/><path d="M120.29,25.14l-.14.72a1.38,1.38,0,0,0-.37-.05c-.52,0-.83.38-1,1.19v2.4H118V25.19h.63l.08.85a1.19,1.19,0,0,1,1.12-.95A1.93,1.93,0,0,1,120.29,25.14Z"/><path d="M123.63,29.4l0-.65a1.43,1.43,0,0,1-1.32.75,1.13,1.13,0,0,1-1.17-1.29v-3h.73v2.94c0,.58.2.79.65.79a1.27,1.27,0,0,0,1.06-.73v-3h.73V29.4Z"/><path d="M129.28,27.29c0,1.28-.57,2.21-1.66,2.21a1.35,1.35,0,0,1-1.1-.48v2l-.73.08V25.19h.63l0,.57a1.52,1.52,0,0,1,1.25-.67C128.84,25.09,129.28,26,129.28,27.29Zm-.79,0c0-1.09-.32-1.61-1-1.61a1.3,1.3,0,0,0-1,.65v2.06a1.1,1.1,0,0,0,.93.51C128.12,28.9,128.49,28.39,128.49,27.29Z"/><path d="M133.73,29l-.17.51a.85.85,0,0,1-.82-.63,1.45,1.45,0,0,1-1.26.63,1.22,1.22,0,0,1-1.34-1.27c0-.91.68-1.39,1.85-1.39h.65v-.32c0-.6-.3-.83-.88-.83a3.7,3.7,0,0,0-1.14.23l-.18-.54a4.16,4.16,0,0,1,1.46-.29,1.29,1.29,0,0,1,1.48,1.4v1.93C133.38,28.79,133.51,28.91,133.73,29Zm-1.09-.7v-1h-.55q-1.17,0-1.17.87a.67.67,0,0,0,.73.76A1.09,1.09,0,0,0,132.64,28.29Z"/><path d="M135.85,28.89a.76.76,0,0,0,.27-.05l.19.51a1.38,1.38,0,0,1-.62.15c-.54,0-.84-.32-.84-.93V23.49l.73-.08v5.14C135.58,28.78,135.66,28.89,135.85,28.89Z"/><path d="M23,128.07v2.33H22.2v-5.51h1.44c1.38,0,2.1.53,2.1,1.56a1.44,1.44,0,0,1-1.19,1.48L26,130.4h-.91l-1.32-2.33Zm2-1.62c0-.69-.39-1-1.29-1H23v2h.76C24.49,127.48,24.93,127.2,24.93,126.45Z"/><path d="M30,128.55H27.28c.07,1,.52,1.35,1.13,1.35a1.76,1.76,0,0,0,1.1-.37l.32.44a2.3,2.3,0,0,1-1.47.53c-1.18,0-1.87-.83-1.87-2.16s.67-2.25,1.75-2.25,1.74.79,1.74,2.08C30,128.31,30,128.45,30,128.55Zm-.71-.59c0-.83-.33-1.28-1-1.28s-.93.39-1,1.32h2Z"/><path d="M34.42,132.1l-.74-.08v-2.18a1.39,1.39,0,0,1-1.2.66c-1,0-1.59-.87-1.59-2.19s.63-2.22,1.66-2.22a1.55,1.55,0,0,1,1.18.57l.06-.47h.63Zm-.74-2.81v-2.06a1.19,1.19,0,0,0-1-.55c-.63,0-1,.52-1,1.62s.36,1.61,1,1.61A1.2,1.2,0,0,0,33.68,129.29Z"/><path d="M38.44,130.4l0-.65a1.41,1.41,0,0,1-1.31.75,1.13,1.13,0,0,1-1.18-1.29v-3h.74v2.94c0,.58.19.79.64.79a1.27,1.27,0,0,0,1.06-.73v-3h.74v4.21Z"/><path d="M43.76,128.55H41.08c.07,1,.52,1.35,1.13,1.35a1.76,1.76,0,0,0,1.1-.37l.32.44a2.3,2.3,0,0,1-1.47.53c-1.18,0-1.87-.83-1.87-2.16s.67-2.25,1.75-2.25,1.74.79,1.74,2.08C43.78,128.31,43.77,128.45,43.76,128.55Zm-.71-.59c0-.83-.33-1.28-1-1.28s-.93.39-1,1.32h2Z"/><path d="M47.57,126.57l-.32.49a1.78,1.78,0,0,0-1.09-.38c-.48,0-.77.21-.77.55s.22.5.9.68c.89.22,1.4.57,1.4,1.31s-.81,1.28-1.66,1.28a2.34,2.34,0,0,1-1.59-.55l.4-.47a1.81,1.81,0,0,0,1.17.43c.55,0,.91-.25.91-.62s-.21-.6-1-.81-1.27-.64-1.27-1.24.65-1.15,1.52-1.15A2.26,2.26,0,0,1,47.57,126.57Z"/><path d="M49.92,130.5a1.06,1.06,0,0,1-1.14-1.2v-2.54H48v-.57h.74v-1l.74-.09v1h1l-.08.57h-.92v2.51c0,.42.13.62.5.62a1.11,1.11,0,0,0,.56-.18l.28.5A1.61,1.61,0,0,1,49.92,130.5Z"/><path d="M237.43,109.61,237,111.4h-2l2.51-8.31h2.39l2.5,8.31h-2.08l-.43-1.79Zm1.21-5.09-.87,3.67h1.75Z"/><path d="M247.54,105.61l-.7,1.08a2.76,2.76,0,0,0-1.51-.51c-.58,0-.83.2-.83.48s.17.48,1.31.82,2,.89,2,2c0,1.32-1.24,2.1-2.83,2.1a4,4,0,0,1-2.66-1l.94-1a2.6,2.6,0,0,0,1.66.64c.59,0,.94-.22.94-.59s-.19-.57-1.34-.9-1.89-1-1.89-2,1-1.94,2.61-1.94A3.72,3.72,0,0,1,247.54,105.61Z"/><path d="M253.33,105.61l-.7,1.08a2.73,2.73,0,0,0-1.51-.51c-.57,0-.82.2-.82.48s.16.48,1.3.82,2,.89,2,2c0,1.32-1.25,2.1-2.83,2.1a4,4,0,0,1-2.66-1l.93-1a2.65,2.65,0,0,0,1.67.64c.59,0,.94-.22.94-.59s-.2-.57-1.35-.9-1.88-1-1.88-2,1-1.94,2.6-1.94A3.7,3.7,0,0,1,253.33,105.61Z"/><path d="M260.06,108.78h-3.94c.13,1.13.67,1.45,1.45,1.45a2.55,2.55,0,0,0,1.52-.57l.78,1.06a3.94,3.94,0,0,1-2.48.89c-2.13,0-3.21-1.37-3.21-3.36s1-3.42,3-3.42,2.94,1.2,2.94,3.26A5.22,5.22,0,0,1,260.06,108.78Zm-1.82-1.23c0-.86-.28-1.46-1-1.46s-1,.41-1.09,1.55h2.12Z"/><path d="M263.46,111.61c-1.4,0-2.09-.81-2.09-2.31v-3h-.9V105h.9v-1.38l1.9-.21V105h1.46l-.2,1.32h-1.26v2.93c0,.61.2.83.6.83a1.23,1.23,0,0,0,.68-.22l.64,1.21A3.13,3.13,0,0,1,263.46,111.61Z"/><path d="M270.41,105.61l-.7,1.08a2.76,2.76,0,0,0-1.51-.51c-.58,0-.83.2-.83.48s.17.48,1.31.82,2,.89,2,2c0,1.32-1.25,2.1-2.83,2.1a4,4,0,0,1-2.67-1l.94-1a2.62,2.62,0,0,0,1.66.64c.59,0,.94-.22.94-.59s-.19-.57-1.34-.9-1.89-1-1.89-2,1-1.94,2.61-1.94A3.72,3.72,0,0,1,270.41,105.61Z"/><circle class="cls-10" cx="51.42" cy="206.15" r="12"/><path d="M51.42,195.15a11,11,0,1,1-11,11,11,11,0,0,1,11-11m0-2a13,13,0,1,0,13,13,13,13,0,0,0-13-13Z"/><path class="cls-2" d="M48.73,208.35h2v-5l-1.67,1-.85-1.26,2.69-1.63h1.7v6.86h1.55v1.45H48.73Z"/><circle class="cls-10" cx="120.42" cy="86.15" r="12"/><path d="M120.42,75.15a11,11,0,1,1-11,11,11,11,0,0,1,11-11m0-2a13,13,0,1,0,13,13,13,13,0,0,0-13-13Z"/><path class="cls-2" d="M119.49,88.34H123l-.2,1.46h-5.54V88.45c2.72-2.64,3.59-3.64,3.59-4.62a1,1,0,0,0-1.1-1.08,1.81,1.81,0,0,0-1.49.84l-1.17-.89A3.42,3.42,0,0,1,120,81.27c1.89,0,2.86,1.1,2.86,2.39S122,86.08,119.49,88.34Z"/><circle class="cls-10" cx="182.42" cy="174.15" r="12"/><path d="M182.42,163.15a11,11,0,1,1-11,11,11,11,0,0,1,11-11m0-2a13,13,0,1,0,13,13,13,13,0,0,0-13-13Z"/><path class="cls-2" d="M179,170.4a4,4,0,0,1,2.86-1.13c1.8,0,2.84,1,2.84,2.14a2,2,0,0,1-1.58,2v0a1.94,1.94,0,0,1,1.84,2.05c0,1.41-1.22,2.55-3.22,2.55a3.78,3.78,0,0,1-2.94-1.25l1.08-1a2.22,2.22,0,0,0,1.73.79c.81,0,1.39-.43,1.39-1.21s-.52-1.23-1.41-1.23h-.75l.21-1.32h.54c.74,0,1.25-.36,1.25-1.08s-.49-1-1.2-1a2.33,2.33,0,0,0-1.65.72Z"/><circle class="cls-10" cx="263.42" cy="160.15" r="12"/><path d="M263.42,149.15a11,11,0,1,1-11,11,11,11,0,0,1,11-11m0-2a13,13,0,1,0,13,13,13,13,0,0,0-13-13Z"/><path class="cls-2" d="M265.35,162.06v1.74h-1.87v-1.74h-3.42v-1.27l2.3-5.52,1.63.6L262,160.62h1.44l.21-2h1.66v2h.82v1.44Z"/><polyline class="cls-7" points="283.43 197.15 315.43 197.15 315.43 245.15 51.42 245.15 51.42 223.33"/><polygon class="cls-8" points="56.41 224.78 51.42 216.15 46.44 224.78 56.41 224.78"/><circle class="cls-10" cx="289.42" cy="197.15" r="12"/><path d="M289.42,186.15a11,11,0,1,1-11,11,11,11,0,0,1,11-11m0-2a13,13,0,1,0,13,13,13,13,0,0,0-13-13Z"/><path class="cls-2" d="M288.79,201a3.47,3.47,0,0,1-2.77-1.25l1.1-1a1.9,1.9,0,0,0,1.52.79,1.37,1.37,0,0,0,1.45-1.44c0-1-.51-1.41-1.18-1.41a2.07,2.07,0,0,0-1,.27h-1.29v-4.47h5.08l-.21,1.37h-3v1.77a3,3,0,0,1,1.23-.26,2.44,2.44,0,0,1,2.4,2.7A3,3,0,0,1,288.79,201Z"/><g class="cls-11"><path class="cls-7" d="M80.35,76.9a69.8,69.8,0,0,0-45.85,63v7.28"/><polygon class="cls-8" points="77.46 72.7 87.21 74.8 80.52 82.19 77.46 72.7"/></g><g class="cls-12"><path class="cls-3" d="M263.07,136.48a71.53,71.53,0,0,0-53.65-62.16"/><polygon class="cls-6" points="267.85 134.72 263.43 143.65 257.9 135.35 267.85 134.72"/></g></svg>